<?xml version="1.0" encoding="utf-8"?>
<!-- Generator: Adobe Illustrator 19.1.0, SVG Export Plug-In . SVG Version: 6.00 Build 0)  -->
<svg version="1.1" id="Layer_1" xmlns="http://www.w3.org/2000/svg" xmlns:xlink="http://www.w3.org/1999/xlink" x="0px" y="0px"
	 viewBox="0 0 270 67" style="enable-background:new 0 0 270 67;" xml:space="preserve">
<style type="text/css">
	.st0{fill:#FFFCFC;}
	.st1{fill:#FFFFFF;}
	.st2{fill:none;stroke:#FFFFFF;stroke-miterlimit:10;}
</style>
<g>
	<g>
		<path class="st0" d="M83.5,47.4c0,0,0-1.2-1.6-2.2L45.4,31c0,0,0.2-0.6-0.6-1c0,0,0.6-0.8,0-1.2c0,0,0.6-0.7,0-0.9v-3.5
			c0,0,0.1-0.6,0.8-1.6c0,0,3.5-3,2.1-6.3c0,0-1-3.6-5.5-3.3c-0.1,0-0.2,0-0.2,0c0,0-2.4,0.2-3.6,3.1l-0.9,1.7c0,0,0.5,1,1.2,0
			l0.4-0.9c0,0,0.7-2.2,3.1-2.8c0,0,3.6-0.4,4.7,2.5c1.1,2.9-2.5,6-2.5,6s-0.4,0.2-0.8,1.5v3.5c0,0-0.7,0.3-0.1,0.9
			c0,0-0.6,0.7,0,0.8l-0.1,0.6l-0.5,0.6c0,0-0.4-0.1-0.4,0.4L7.3,45.2c0,0-1.6,0.4-1.2,2.5c0,0,0.3,1.7,1.9,2.2h73.9
			C81.9,49.9,83.8,49.6,83.5,47.4z M81.5,48.9H8.4c0,0-0.9,0-1.4-1.3c0,0-0.2-1.4,1.7-1.8l35.5-14.4L81.5,46c0,0,1.1,0.6,1.1,1.4
			S82.1,48.9,81.5,48.9z"/>
		<path class="st1" d="M8,50.4l-0.1,0c-1.9-0.5-2.3-2.5-2.3-2.6c-0.3-2,0.9-2.9,1.6-3.1l34.9-14c0.1-0.2,0.2-0.3,0.2-0.3
			c0.1-0.1,0.3-0.2,0.4-0.2l0.3-0.4c-0.1-0.1-0.1-0.2-0.2-0.3c-0.1-0.3,0-0.6,0.1-0.8c-0.2-0.3-0.2-0.5-0.1-0.7
			c0-0.2,0.2-0.4,0.3-0.5l0-3.4c0.3-1.2,0.8-1.6,1-1.8c0.4-0.3,3.2-3,2.3-5.4c-0.9-2.5-4-2.2-4.1-2.2c-2,0.5-2.7,2.4-2.7,2.5
			l-0.5,0.9c-0.4,0.5-0.7,0.7-1.1,0.7c-0.6,0-0.9-0.6-1-0.7l-0.1-0.2l1-1.9c1.3-3.1,3.9-3.4,4-3.4l0.3,0c4.8-0.3,6,3.6,6,3.7
			c1.6,3.5-2,6.7-2.2,6.9c-0.6,0.7-0.7,1.3-0.7,1.3l0,3.1c0.1,0.1,0.2,0.2,0.2,0.4c0.1,0.3,0,0.6-0.1,0.8c0.1,0.1,0.1,0.3,0.2,0.4
			c0,0.3,0,0.5-0.1,0.7c0.3,0.3,0.4,0.6,0.4,0.8l36.3,14.1c1.7,1.1,1.9,2.3,1.9,2.6c0.1,0.8,0,1.6-0.5,2.1c-0.6,0.8-1.6,0.9-1.6,0.9
			L8,50.4z M83,47.8c-0.1,0.7-0.5,1.3-1.1,1.6C82.2,49.3,83,49,83,47.8z M44.3,32L9,46.3c-1.5,0.3-1.4,1.2-1.4,1.3
			c0.3,0.8,0.8,0.9,0.9,0.9h73.1c0.2,0,0.6-0.5,0.6-1.1c0-0.3-0.5-0.8-0.8-0.9L44.3,32z M43,31.2v0.2l-0.3,0.2L7.5,45.7
			c-0.2,0.1-1.2,0.4-0.9,1.9c0,0,0,0,0,0.1c-0.1-0.8,0.3-2,2.1-2.4l35.6-14.4l0.5,0.2l0.1-0.3c0-0.1,0-0.2-0.3-0.4L44,30.2l0.4-0.5
			c0.1-0.1,0.2-0.3,0.2-0.4c0,0,0,0-0.1-0.1L44,28.9l-0.2,0.2c0,0,0,0-0.1,0.1l0.2,0l0,0.4l-0.1,0.7L43,31.2L43,31.2z M43.7,28.3
			c0,0,0,0.1,0.1,0.1l0.3,0.3l0.2-0.3c0-0.1,0.1-0.1,0.1-0.2l-0.2-0.1l0-0.4v-3.5c0-0.1,0.1-0.6,0.5-1.2c0,0-0.1,0.1-0.1,0.1
			l-0.1,0.1l0,0c0,0-0.3,0.2-0.5,1.1v3.8L43.7,28.3z M42.7,13.6c-0.1,0-0.3,0-0.5,0l-0.2,0c-0.2,0-2.2,0.3-3.3,2.8l-0.7,1.4
			c0,0,0.1-0.1,0.2-0.2l0.4-0.8c0,0,0.8-2.4,3.4-3.1c1-0.1,2.8,0.1,4.1,1.1C45.4,14.2,44.4,13.6,42.7,13.6z"/>
	</g>
	<g>
		<path class="st2" d="M92.8,13.1h3.3v14.4c1.3-1.7,2.8-3,4.4-3.9c1.6-0.9,3.3-1.3,5.2-1.3c1.9,0,3.6,0.5,5.1,1.4s2.6,2.3,3.3,3.9
			s1.1,4.2,1.1,7.7v13.1h-3.3V36.2c0-2.9-0.1-4.9-0.4-5.9c-0.4-1.7-1.1-2.9-2.2-3.8c-1.1-0.8-2.5-1.3-4.2-1.3c-2,0-3.8,0.7-5.3,2
			s-2.6,2.9-3.1,4.9c-0.3,1.2-0.5,3.6-0.5,6.9v9.3h-3.3V13.1z"/>
		<path class="st2" d="M147.3,22.9v25.4h-3.2v-4.4c-1.4,1.7-2.9,2.9-4.6,3.8s-3.6,1.3-5.6,1.3c-3.6,0-6.7-1.3-9.2-3.9
			c-2.5-2.6-3.8-5.8-3.8-9.5c0-3.7,1.3-6.8,3.9-9.4s5.7-3.9,9.3-3.9c2.1,0,4,0.4,5.7,1.3c1.7,0.9,3.2,2.2,4.5,4v-4.7H147.3z
			 M134.2,25.4c-1.8,0-3.5,0.4-5,1.3c-1.5,0.9-2.8,2.2-3.7,3.8s-1.4,3.3-1.4,5.1c0,1.8,0.5,3.5,1.4,5.1s2.2,2.9,3.7,3.8
			c1.5,0.9,3.2,1.4,5,1.4c1.8,0,3.5-0.5,5.1-1.4c1.6-0.9,2.8-2.1,3.7-3.7c0.9-1.5,1.3-3.3,1.3-5.2c0-2.9-1-5.4-2.9-7.4
			C139.4,26.4,137.1,25.4,134.2,25.4z"/>
		<path class="st2" d="M154.7,22.9h3.3v4.6c1.3-1.7,2.8-3,4.3-3.9c1.6-0.9,3.3-1.3,5.2-1.3c1.9,0,3.6,0.5,5.1,1.4s2.6,2.3,3.3,3.9
			s1.1,4.2,1.1,7.6v13.1h-3.3V36.2c0-2.9-0.1-4.9-0.4-5.9c-0.4-1.7-1.1-2.9-2.2-3.8c-1.1-0.8-2.5-1.3-4.2-1.3c-2,0-3.8,0.7-5.3,2
			c-1.6,1.3-2.6,2.9-3.1,4.9c-0.3,1.3-0.5,3.6-0.5,6.9v9.3h-3.3V22.9z"/>
		<path class="st2" d="M205.8,22.9h3.3v20.3c0,3.6-0.3,6.2-0.9,7.8c-0.9,2.3-2.3,4.1-4.5,5.4c-2.1,1.3-4.7,1.9-7.6,1.9
			c-2.2,0-4.1-0.3-5.9-0.9s-3.2-1.4-4.2-2.5c-1.1-1-2.1-2.6-3-4.6h3.6c1,1.7,2.2,2.9,3.7,3.7s3.4,1.2,5.7,1.2c2.2,0,4.1-0.4,5.6-1.2
			c1.5-0.8,2.6-1.9,3.3-3.1c0.7-1.3,1-3.3,1-6.1v-1.3c-1.2,1.6-2.7,2.8-4.5,3.6c-1.8,0.8-3.7,1.2-5.7,1.2c-2.3,0-4.5-0.6-6.6-1.7
			c-2.1-1.2-3.6-2.7-4.8-4.7s-1.7-4.1-1.7-6.5c0-2.4,0.6-4.5,1.8-6.6c1.2-2,2.8-3.6,4.9-4.8s4.2-1.8,6.5-1.8c1.9,0,3.7,0.4,5.3,1.2
			c1.6,0.8,3.2,2.1,4.8,3.9V22.9z M196.1,25.4c-1.9,0-3.6,0.4-5.2,1.3c-1.6,0.9-2.8,2.1-3.7,3.7s-1.4,3.3-1.4,5.1
			c0,2.8,0.9,5.1,2.8,6.9c1.9,1.8,4.3,2.7,7.3,2.7c3,0,5.4-0.9,7.3-2.7c1.8-1.8,2.7-4.2,2.7-7.1c0-1.9-0.4-3.6-1.3-5.1
			c-0.8-1.5-2-2.7-3.6-3.6C199.5,25.8,197.9,25.4,196.1,25.4z"/>
		<path class="st2" d="M237.4,39.9l2.8,1.4c-0.9,1.8-1.9,3.2-3.1,4.3c-1.2,1.1-2.5,1.9-4,2.5s-3.2,0.9-5,0.9c-4.1,0-7.4-1.4-9.7-4.1
			c-2.3-2.7-3.5-5.8-3.5-9.2c0-3.2,1-6.1,3-8.6c2.5-3.2,5.9-4.8,10.1-4.8c4.3,0,7.8,1.6,10.4,4.9c1.8,2.3,2.8,5.2,2.8,8.7h-22.9
			c0.1,3,1,5.4,2.8,7.3c1.8,1.9,4.1,2.8,6.8,2.8c1.3,0,2.6-0.2,3.8-0.7c1.2-0.5,2.3-1,3.1-1.8C235.5,42.7,236.4,41.5,237.4,39.9z
			 M237.4,33c-0.4-1.7-1.1-3.1-1.9-4.2c-0.8-1-1.9-1.9-3.3-2.5c-1.4-0.6-2.8-1-4.3-1c-2.5,0-4.6,0.8-6.4,2.4c-1.3,1.2-2.3,2.9-3,5.3
			H237.4z"/>
		<path class="st2" d="M245.9,22.9h3.3v3.7c1-1.5,2-2.6,3.2-3.3s2.3-1.1,3.5-1.1c0.9,0,1.9,0.3,2.9,0.9l-1.7,2.8
			c-0.7-0.3-1.3-0.4-1.7-0.4c-1.1,0-2.1,0.4-3.2,1.3c-1,0.9-1.8,2.3-2.3,4.2c-0.4,1.4-0.6,4.4-0.6,8.8v8.6h-3.3V22.9z"/>
		<path class="st2" d="M261.6,43.2c0.8,0,1.5,0.3,2,0.8c0.6,0.6,0.8,1.2,0.8,2.1c0,0.8-0.3,1.5-0.8,2s-1.2,0.9-2,0.9
			c-0.8,0-1.5-0.3-2-0.9s-0.8-1.2-0.8-2c0-0.8,0.3-1.5,0.8-2.1C260.2,43.4,260.8,43.2,261.6,43.2z"/>
	</g>
</g>
</svg>
