<?xml version="1.0" encoding="utf-8"?>
<!-- Generator: Adobe Illustrator 19.1.0, SVG Export Plug-In . SVG Version: 6.00 Build 0)  -->
<svg version="1.1" xmlns="http://www.w3.org/2000/svg" xmlns:xlink="http://www.w3.org/1999/xlink" x="0px" y="0px"
	 viewBox="0 0 2538 6640.6" style="enable-background:new 0 0 2538 6640.6;" xml:space="preserve">
<style type="text/css">
	.st0{fill:#441F2C;}
	.st1{fill:#B3AAAF;}
	.st2{clip-path:url(#SVGID_2_);fill:none;stroke:#542B41;stroke-miterlimit:10;}
	.st3{clip-path:url(#SVGID_2_);}
	.st4{fill:none;stroke:#542B41;stroke-miterlimit:10;}
	.st5{opacity:9.000000e-02;}
	.st6{clip-path:url(#SVGID_4_);fill:none;stroke:#542B41;stroke-miterlimit:10;}
	.st7{fill:none;stroke:#B3AAAF;stroke-miterlimit:10;}
	.st8{font-family:'Archer-Light';}
	.st9{font-size:366.0695px;}
	.st10{opacity:0.27;}
	.st11{clip-path:url(#SVGID_6_);}
	.st12{fill:#441F2C;stroke:#441F2C;stroke-miterlimit:10;}
	.st13{opacity:0.27;fill:#441F2C;stroke:#441F2C;stroke-miterlimit:10;}
	.st14{opacity:0.58;}
	.st15{fill:#9A979A;}
	.st16{font-size:339.3375px;}
	.st17{font-size:426.7522px;}
	.st18{opacity:0.27;clip-path:url(#SVGID_8_);}
	.st19{font-family:'Archer-Bold';}
	.st20{font-size:899.5427px;}
	.st21{fill:none;}
	.st22{opacity:0.27;clip-path:url(#SVGID_10_);}
	.st23{font-family:'Archer-Hairline';}
	.st24{font-size:808.4611px;}
	.st25{opacity:0.54;}
	.st26{clip-path:url(#SVGID_12_);}
	.st27{fill:#2A151C;}
	.st28{opacity:0.27;clip-path:url(#SVGID_14_);}
	.st29{opacity:0.77;}
	.st30{clip-path:url(#SVGID_16_);}
	.st31{fill:none;stroke:#F9F9FA;stroke-miterlimit:10;}
	.st32{font-family:'Archer-LightItalic';}
	.st33{font-size:421.1943px;}
	.st34{opacity:0.26;clip-path:url(#SVGID_18_);}
	.st35{fill:none;stroke:#FFFFFF;stroke-miterlimit:10;}
	.st36{font-size:650.1696px;}
	.st37{opacity:0.26;clip-path:url(#SVGID_20_);}
	.st38{fill:none;stroke:#2F1720;stroke-miterlimit:10;}
	.st39{fill:#FFFFFF;}
	.st40{font-size:1217.0767px;}
	.st41{font-family:'Archer-SemiboldItalic';}
	.st42{font-size:71.7205px;}
	.st43{letter-spacing:20;}
	.st44{letter-spacing:22;}
	.st45{letter-spacing:14;}
	.st46{letter-spacing:3;}
	.st47{font-family:'Archer-Medium';}
	.st48{font-family:'Archer-Thin';}
	.st49{font-size:64.9938px;}
	.st50{fill:#FFFFFF;stroke:#000000;stroke-miterlimit:10;}
	.st51{clip-path:url(#SVGID_22_);fill:none;stroke:#542B41;stroke-miterlimit:10;}
	.st52{clip-path:url(#SVGID_22_);}
	.st53{clip-path:url(#SVGID_24_);}
	.st54{opacity:0.27;clip-path:url(#SVGID_26_);}
	.st55{opacity:0.27;clip-path:url(#SVGID_28_);}
	.st56{clip-path:url(#SVGID_30_);}
	.st57{opacity:0.27;clip-path:url(#SVGID_32_);}
	.st58{clip-path:url(#SVGID_34_);}
	.st59{opacity:0.26;clip-path:url(#SVGID_36_);}
	.st60{opacity:0.26;clip-path:url(#SVGID_38_);}
	.st61{clip-path:url(#SVGID_40_);fill:none;stroke:#542B41;stroke-miterlimit:10;}
</style>
<g id="Layer_1">
	<g>
		<rect x="-5.5" y="0.5" class="st0" width="2548.5" height="1593.8"/>
		<rect x="-4.7" y="1594.2" class="st1" width="2548.5" height="1593.8"/>
		<g>
			<defs>
				<rect id="SVGID_1_" x="-3" y="0.5" width="2548.5" height="1593.8"/>
			</defs>
			<clipPath id="SVGID_2_">
				<use xlink:href="#SVGID_1_"  style="overflow:visible;"/>
			</clipPath>
			<path class="st2" d="M-773.3,1593.3c1.4-86.1,15.3-172.1,43.2-253.7c25.6-75,62.8-145.9,110.5-209.2
				c46.3-61.4,102.2-115.4,165.1-159.6c62.8-44.2,132.3-78.6,205.4-102c74.5-23.9,152.5-36.4,230.7-37.5
				c95.6-1.3,192.1,12.7,282,45.6c72.2,26.4,141.5,65.1,196.6,119.3c41.3,40.6,76.6,92.2,85.3,150.6c10.9,73.1-26.9,153-105.7,163.9
				c-86.9,12-160.3-67.4-134.4-153.3c5.9-19.5,17.2-37.1,33.2-49.9c-57.3-61.8-145.2-95-226-111.3C-53.8,962-231.4,995.6-375.3,1106
				c-38.4,28.8-67.2,62.4-100.8,100.8c-4.8,9.6-14.4,24-24,33.6c-67.2,110.4-105.6,230.4-102.5,353.8"/>
			<path class="st2" d="M-1099.2,1593.3c1.4-86.1,15.3-172.1,43.2-253.7c25.6-75,62.8-145.9,110.5-209.2
				c46.3-61.4,102.2-115.4,165.1-159.6c62.8-44.2,132.3-78.6,205.4-102c74.5-23.9,152.5-36.4,230.7-37.5
				c95.6-1.3,192.1,12.7,282,45.6C9.9,903.2,79.2,942,134.3,996.2c41.3,40.6,76.6,92.2,85.3,150.6c10.9,73.1-26.9,153-105.7,163.9
				c-86.9,12-160.3-67.4-134.4-153.3c5.9-19.5,17.2-37.1,33.2-49.9c-57.3-61.8-145.2-95-226-111.3
				c-166.3-34.2-343.9-0.6-487.9,109.8c-38.4,28.8-67.2,62.4-100.8,100.8c-4.8,9.6-14.4,24-24,33.6
				c-67.2,110.4-105.6,230.4-102.5,353.8"/>
			<path class="st2" d="M-136.6,1593.3c1.4-86.1,15.3-172.1,43.2-253.7c25.6-75,62.8-145.9,110.5-209.2
				c46.3-61.4,102.2-115.4,165.1-159.6c62.8-44.2,132.3-78.6,205.4-102c74.5-23.9,152.5-36.4,230.7-37.5
				c95.6-1.3,192.1,12.7,282,45.6c72.2,26.4,141.5,65.1,196.6,119.3c41.3,40.6,76.6,92.2,85.3,150.6c10.9,73.1-26.9,153-105.7,163.9
				c-86.9,12-160.3-67.4-134.4-153.3c5.9-19.5,17.2-37.1,33.2-49.9c-57.3-61.8-145.2-95-226-111.3C582.9,962,405.3,995.6,261.4,1106
				c-38.4,28.8-67.2,62.4-100.8,100.8c-4.8,9.6-14.4,24-24,33.6C69.4,1350.8,31,1470.8,34.1,1594.2"/>
			<path class="st2" d="M-462.5,1593.3c1.4-86.1,15.3-172.1,43.2-253.7c25.6-75,62.8-145.9,110.5-209.2
				c46.3-61.4,102.2-115.4,165.1-159.6c62.8-44.2,132.3-78.6,205.4-102c74.5-23.9,152.5-36.4,230.7-37.5
				c95.6-1.3,192.1,12.7,282,45.6C646.6,903.2,715.9,942,771,996.2c41.3,40.6,76.6,92.2,85.3,150.6c10.9,73.1-26.9,153-105.7,163.9
				c-86.9,12-160.3-67.4-134.4-153.3c5.9-19.5,17.2-37.1,33.2-49.9c-57.3-61.8-145.2-95-226-111.3C257.1,962,79.5,995.6-64.5,1106
				c-38.4,28.8-67.2,62.4-100.8,100.8c-4.8,9.6-14.4,24-24,33.6c-67.2,110.4-105.6,230.4-102.5,353.8"/>
			<path class="st2" d="M476,1593.3c1.4-86.1,15.3-172.1,43.2-253.7c25.6-75,62.8-145.9,110.5-209.2
				c46.3-61.4,102.2-115.4,165.1-159.6c62.8-44.2,132.3-78.6,205.4-102c74.5-23.9,152.5-36.4,230.7-37.5
				c95.6-1.3,192.1,12.7,282,45.6c72.2,26.4,141.5,65.1,196.6,119.3c41.3,40.6,76.6,92.2,85.3,150.6c10.9,73.1-26.9,153-105.7,163.9
				c-86.9,12-160.3-67.4-134.4-153.3c5.9-19.5,17.2-37.1,33.2-49.9c-57.3-61.8-145.2-95-226-111.3
				c-166.3-34.2-343.9-0.6-487.9,109.8c-38.4,28.8-67.2,62.4-100.8,100.8c-4.8,9.6-14.4,24-24,33.6
				c-67.2,110.4-105.6,230.4-102.5,353.8"/>
			<path class="st2" d="M150.1,1593.3c1.4-86.1,15.3-172.1,43.2-253.7c25.6-75,62.8-145.9,110.5-209.2
				c46.3-61.4,102.2-115.4,165.1-159.6c62.8-44.2,132.3-78.6,205.4-102c74.5-23.9,152.5-36.4,230.7-37.5
				c95.6-1.3,192.1,12.7,282,45.6c72.2,26.4,141.5,65.1,196.6,119.3c41.3,40.6,76.6,92.2,85.3,150.6c10.9,73.1-26.9,153-105.7,163.9
				c-86.9,12-160.3-67.4-134.4-153.3c5.9-19.5,17.2-37.1,33.2-49.9c-57.3-61.8-145.2-95-226-111.3C869.6,962,692.1,995.6,548.1,1106
				c-38.4,28.8-67.2,62.4-100.8,100.8c-4.8,9.6-14.4,24-24,33.6c-67.2,110.4-105.6,230.4-102.5,353.8"/>
			<path class="st2" d="M1112.7,1593.3c1.4-86.1,15.3-172.1,43.2-253.7c25.6-75,62.8-145.9,110.5-209.2
				c46.3-61.4,102.2-115.4,165.1-159.6c62.8-44.2,132.3-78.6,205.4-102c74.5-23.9,152.5-36.4,230.7-37.5
				c95.6-1.3,192.1,12.7,282,45.6c72.2,26.4,141.5,65.1,196.6,119.3c41.3,40.6,76.6,92.2,85.3,150.6c10.9,73.1-26.9,153-105.7,163.9
				c-86.9,12-160.3-67.4-134.4-153.3c5.9-19.5,17.2-37.1,33.2-49.9c-57.3-61.8-145.2-95-226-111.3
				c-166.3-34.2-343.9-0.6-487.9,109.8c-38.4,28.8-67.2,62.4-100.8,100.8c-4.8,9.6-14.4,24-24,33.6
				c-67.2,110.4-105.6,230.4-102.5,353.8"/>
			<path class="st2" d="M786.8,1593.3c1.4-86.1,15.3-172.1,43.2-253.7c25.6-75,62.8-145.9,110.5-209.2
				c46.3-61.4,102.2-115.4,165.1-159.6c62.8-44.2,132.3-78.6,205.4-102c74.5-23.9,152.5-36.4,230.7-37.5
				c95.6-1.3,192.1,12.7,282,45.6c72.2,26.4,141.5,65.1,196.6,119.3c41.3,40.6,76.6,92.2,85.3,150.6c10.9,73.1-26.9,153-105.7,163.9
				c-86.9,12-160.3-67.4-134.4-153.3c5.9-19.5,17.2-37.1,33.2-49.9c-57.3-61.8-145.2-95-226-111.3
				c-166.3-34.2-343.9-0.6-487.9,109.8c-38.4,28.8-67.2,62.4-100.8,100.8c-4.8,9.6-14.4,24-24,33.6
				c-67.2,110.4-105.6,230.4-102.5,353.8"/>
			<path class="st2" d="M1725.2,1593.3c1.4-86.1,15.3-172.1,43.2-253.7c25.6-75,62.8-145.9,110.5-209.2
				c46.3-61.4,102.2-115.4,165.1-159.6c62.8-44.2,132.3-78.6,205.4-102c74.5-23.9,152.5-36.4,230.7-37.5
				c95.6-1.3,192.1,12.7,282,45.6c72.2,26.4,141.5,65.1,196.6,119.3c41.3,40.6,76.6,92.2,85.3,150.6c10.9,73.1-26.9,153-105.7,163.9
				c-86.9,12-160.3-67.4-134.4-153.3c5.9-19.5,17.2-37.1,33.2-49.9c-57.3-61.8-145.2-95-226-111.3
				c-166.3-34.2-343.9-0.6-487.9,109.8c-38.4,28.8-67.2,62.4-100.8,100.8c-4.8,9.6-14.4,24-24,33.6
				c-67.2,110.4-105.6,230.4-102.5,353.8"/>
			<path class="st2" d="M1399.4,1593.3c1.4-86.1,15.3-172.1,43.2-253.7c25.6-75,62.8-145.9,110.5-209.2
				c46.3-61.4,102.2-115.4,165.1-159.6c62.8-44.2,132.3-78.6,205.4-102c74.5-23.9,152.5-36.4,230.7-37.5
				c95.6-1.3,192.1,12.7,282,45.6c72.2,26.4,141.5,65.1,196.6,119.3c41.3,40.6,76.6,92.2,85.3,150.6c10.9,73.1-26.9,153-105.7,163.9
				c-86.9,12-160.3-67.4-134.4-153.3c5.9-19.5,17.2-37.1,33.2-49.9c-57.3-61.8-145.2-95-226-111.3
				c-166.3-34.2-343.9-0.6-487.9,109.8c-38.4,28.8-67.2,62.4-100.8,100.8c-4.8,9.6-14.4,24-24,33.6
				c-67.2,110.4-105.6,230.4-102.5,353.8"/>
			<path class="st2" d="M2361.9,1593.3c1.4-86.1,15.3-172.1,43.2-253.7c25.6-75,62.8-145.9,110.5-209.2
				c46.3-61.4,102.2-115.4,165.1-159.6c62.8-44.2,132.3-78.6,205.4-102c74.5-23.9,152.5-36.4,230.7-37.5
				c95.6-1.3,192.1,12.7,282,45.6c72.2,26.4,141.5,65.1,196.6,119.3c41.3,40.6,76.6,92.2,85.3,150.6c10.9,73.1-26.9,153-105.7,163.9
				c-86.9,12-160.3-67.4-134.4-153.3c5.9-19.5,17.2-37.1,33.2-49.9c-57.3-61.8-145.2-95-226-111.3
				c-166.3-34.2-343.9-0.6-487.9,109.8c-38.4,28.8-67.2,62.4-100.8,100.8c-4.8,9.6-14.4,24-24,33.6
				c-67.2,110.4-105.6,230.4-102.5,353.8"/>
			<path class="st2" d="M2036.1,1593.3c1.4-86.1,15.3-172.1,43.2-253.7c25.6-75,62.8-145.9,110.5-209.2
				c46.3-61.4,102.2-115.4,165.1-159.6c62.8-44.2,132.3-78.6,205.4-102c74.5-23.9,152.5-36.4,230.7-37.5
				c95.6-1.3,192.1,12.7,282,45.6c72.2,26.4,141.5,65.1,196.6,119.3c41.3,40.6,76.6,92.2,85.3,150.6c10.9,73.1-26.9,153-105.7,163.9
				c-86.9,12-160.3-67.4-134.4-153.3c5.9-19.5,17.2-37.1,33.2-49.9c-57.3-61.8-145.2-95-226-111.3C2755.6,962,2578,995.6,2434,1106
				c-38.4,28.8-67.2,62.4-100.8,100.8c-4.8,9.6-14.4,24-24,33.6c-67.2,110.4-105.6,230.4-102.5,353.8"/>
			<g class="st3">
				<path class="st4" d="M3265.5,1.4c-1.5,90-16,179.8-45.1,265c-26.7,78.3-65.6,152.4-115.4,218.4
					c-48.3,64.1-106.7,120.5-172.4,166.7c-65.6,46.1-138.2,82.1-214.5,106.6c-77.8,25-159.3,38.1-240.9,39.2
					c-99.8,1.4-200.6-13.3-294.5-47.6c-75.4-27.5-147.8-68-205.4-124.6c-43.1-42.4-80-96.3-89.1-157.3
					c-11.4-76.3,28.1-159.8,110.4-171.2c90.8-12.5,167.4,70.4,140.3,160.1c-6.1,20.3-18,38.8-34.6,52.1
					c59.9,64.6,151.6,99.2,236,116.2c173.7,35.7,359.1,0.6,509.5-114.7c40.1-30.1,70.2-65.2,105.3-105.3c5-10,15-25.1,25.1-35.1
					c70.2-115.3,110.3-240.6,107-369.6"/>
				<path class="st4" d="M3605.9,1.4c-1.5,90-16,179.8-45.1,265c-26.7,78.3-65.6,152.4-115.4,218.4
					c-48.3,64.1-106.7,120.5-172.4,166.7c-65.6,46.1-138.2,82.1-214.5,106.6c-77.8,25-159.3,38.1-240.9,39.2
					c-99.8,1.4-200.6-13.3-294.5-47.6c-75.4-27.5-147.8-68-205.4-124.6c-43.1-42.4-80-96.3-89.1-157.3
					c-11.4-76.3,28.1-159.8,110.4-171.2c90.8-12.5,167.4,70.4,140.3,160.1c-6.1,20.3-18,38.8-34.6,52.1
					c59.9,64.6,151.6,99.2,236,116.2c173.7,35.7,359.1,0.6,509.5-114.7c40.1-30.1,70.2-65.2,105.3-105.3c5-10,15-25.1,25.1-35.1
					c70.2-115.3,110.3-240.6,107-369.6"/>
				<path class="st4" d="M2600.6,1.4c-1.5,90-16,179.8-45.1,265c-26.7,78.3-65.6,152.4-115.4,218.4
					c-48.3,64.1-106.7,120.5-172.4,166.7c-65.6,46.1-138.2,82.1-214.5,106.6c-77.8,25-159.3,38.1-240.9,39.2
					c-99.8,1.4-200.6-13.3-294.5-47.6c-75.4-27.5-147.8-68-205.4-124.6c-43.1-42.4-80-96.3-89.1-157.3
					c-11.4-76.3,28.1-159.8,110.4-171.2c90.8-12.5,167.4,70.4,140.3,160.1c-6.1,20.3-18,38.8-34.6,52.1
					c59.9,64.6,151.6,99.2,236,116.2c173.7,35.7,359.1,0.6,509.5-114.7c40.1-30.1,70.2-65.2,105.3-105.3c5-10,15-25.1,25.1-35.1
					c70.2-115.3,110.3-240.6,107-369.6"/>
				<path class="st4" d="M2940.9,1.4c-1.5,90-16,179.8-45.1,265c-26.7,78.3-65.6,152.4-115.4,218.4
					c-48.3,64.1-106.7,120.5-172.4,166.7c-65.6,46.1-138.2,82.1-214.5,106.6c-77.8,25-159.3,38.1-240.9,39.2
					c-99.8,1.4-200.6-13.3-294.5-47.6c-75.4-27.5-147.8-68-205.4-124.6c-43.1-42.4-80-96.3-89.1-157.3
					c-11.4-76.3,28.1-159.8,110.4-171.2c90.8-12.5,167.4,70.4,140.3,160.1c-6.1,20.3-18,38.8-34.6,52.1
					c59.9,64.6,151.6,99.2,236,116.2c173.7,35.7,359.1,0.6,509.5-114.7c40.1-30.1,70.2-65.2,105.3-105.3c5-10,15-25.1,25.1-35.1
					c70.2-115.3,110.3-240.6,107-369.6"/>
				<path class="st4" d="M1960.8,1.4c-1.5,90-16,179.8-45.1,265c-26.7,78.3-65.6,152.4-115.4,218.4
					c-48.3,64.1-106.7,120.5-172.4,166.7c-65.6,46.1-138.2,82.1-214.5,106.6c-77.8,25-159.3,38.1-240.9,39.2
					c-99.8,1.4-200.6-13.3-294.5-47.6c-75.4-27.5-147.8-68-205.4-124.6c-43.1-42.4-80-96.3-89.1-157.3
					c-11.4-76.3,28.1-159.8,110.4-171.2c90.8-12.5,167.4,70.4,140.3,160.1c-6.1,20.3-18,38.8-34.6,52.1
					c59.9,64.6,151.6,99.2,236,116.2c173.7,35.7,359.1,0.6,509.5-114.7c40.1-30.1,70.2-65.2,105.3-105.3c5-10,15-25.1,25.1-35.1
					c70.2-115.3,110.3-240.6,107-369.6"/>
				<path class="st4" d="M2301.1,1.4c-1.5,90-16,179.8-45.1,265c-26.7,78.3-65.6,152.4-115.4,218.4
					c-48.3,64.1-106.7,120.5-172.4,166.7c-65.6,46.1-138.2,82.1-214.5,106.6c-77.8,25-159.3,38.1-240.9,39.2
					c-99.8,1.4-200.6-13.3-294.5-47.6c-75.4-27.5-147.8-68-205.4-124.6c-43.1-42.4-80-96.3-89.1-157.3
					c-11.4-76.3,28.1-159.8,110.4-171.2c90.8-12.5,167.4,70.4,140.3,160.1c-6.1,20.3-18,38.8-34.6,52.1
					c59.9,64.6,151.6,99.2,236,116.2c173.7,35.7,359.1,0.6,509.5-114.7c40.1-30.1,70.2-65.2,105.3-105.3c5-10,15-25.1,25.1-35.1
					c70.2-115.3,110.3-240.6,107-369.6"/>
				<path class="st4" d="M1295.9,1.4c-1.5,90-16,179.8-45.1,265c-26.7,78.3-65.6,152.4-115.4,218.4
					c-48.3,64.1-106.7,120.5-172.4,166.7c-65.6,46.1-138.2,82.1-214.5,106.6c-77.8,25-159.3,38.1-240.9,39.2
					c-99.8,1.4-200.6-13.3-294.5-47.6c-75.4-27.5-147.8-68-205.4-124.6c-43.1-42.4-80-96.3-89.1-157.3
					C-92.8,391.5-53.3,307.9,29,296.6c90.8-12.5,167.4,70.4,140.3,160.1c-6.1,20.3-18,38.8-34.6,52.1
					c59.9,64.6,151.6,99.2,236,116.2c173.7,35.7,359.1,0.6,509.5-114.7c40.1-30.1,70.2-65.2,105.3-105.3c5-10,15-25.1,25.1-35.1
					c70.2-115.3,110.3-240.6,107-369.6"/>
				<path class="st4" d="M1636.2,1.4c-1.5,90-16,179.8-45.1,265c-26.7,78.3-65.6,152.4-115.4,218.4
					c-48.3,64.1-106.7,120.5-172.4,166.7c-65.6,46.1-138.2,82.1-214.5,106.6c-77.8,25-159.3,38.1-240.9,39.2
					c-99.8,1.4-200.6-13.3-294.5-47.6c-75.4-27.5-147.8-68-205.4-124.6c-43.1-42.4-80-96.3-89.1-157.3
					c-11.4-76.3,28.1-159.8,110.4-171.2c90.8-12.5,167.4,70.4,140.3,160.1c-6.1,20.3-18,38.8-34.6,52.1
					C534.9,573.4,626.7,608,711,625c173.7,35.7,359.1,0.6,509.5-114.7c40.1-30.1,70.2-65.2,105.3-105.3c5-10,15-25.1,25.1-35.1
					c70.2-115.3,110.3-240.6,107-369.6"/>
				<path class="st4" d="M656.1,1.4c-1.5,90-16,179.8-45.1,265c-26.7,78.3-65.6,152.4-115.4,218.4
					c-48.3,64.1-106.7,120.5-172.4,166.7c-65.6,46.1-138.2,82.1-214.5,106.6c-77.8,25-159.3,38.1-240.9,39.2
					c-99.8,1.4-200.6-13.3-294.5-47.6c-75.4-27.5-147.8-68-205.4-124.6c-43.1-42.4-80-96.3-89.1-157.3
					c-11.4-76.3,28.1-159.8,110.4-171.2c90.8-12.5,167.4,70.4,140.3,160.1c-6.1,20.3-18,38.8-34.6,52.1
					c59.9,64.6,151.6,99.2,236,116.2c173.7,35.7,359.1,0.6,509.5-114.7c40.1-30.1,70.2-65.2,105.3-105.3c5-10,15-25.1,25.1-35.1
					C440.9,254.7,481,129.4,477.8,0.5"/>
				<path class="st4" d="M996.4,1.4c-1.5,90-16,179.8-45.1,265c-26.7,78.3-65.6,152.4-115.4,218.4
					c-48.3,64.1-106.7,120.5-172.4,166.7c-65.6,46.1-138.2,82.1-214.5,106.6c-77.8,25-159.3,38.1-240.9,39.2
					c-99.8,1.4-200.6-13.3-294.5-47.6c-75.4-27.5-147.8-68-205.4-124.6c-43.1-42.4-80-96.3-89.1-157.3
					c-11.4-76.3,28.1-159.8,110.4-171.2c90.8-12.5,167.4,70.4,140.3,160.1c-6.1,20.3-18,38.8-34.6,52.1
					c59.9,64.6,151.6,99.2,236,116.2c173.7,35.7,359.1,0.6,509.5-114.7c40.1-30.1,70.2-65.2,105.3-105.3c5-10,15-25.1,25.1-35.1
					c70.2-115.3,110.3-240.6,107-369.6"/>
				<path class="st4" d="M-8.9,1.4c-1.5,90-16,179.8-45.1,265c-26.7,78.3-65.6,152.4-115.4,218.4
					c-48.3,64.1-106.7,120.5-172.4,166.7c-65.6,46.1-138.2,82.1-214.5,106.6c-77.8,25-159.3,38.1-240.9,39.2
					c-99.8,1.4-200.6-13.3-294.5-47.6c-75.4-27.5-147.8-68-205.4-124.6c-43.1-42.4-80-96.3-89.1-157.3
					c-11.4-76.3,28.1-159.8,110.4-171.2c90.8-12.5,167.4,70.4,140.3,160.1c-6.1,20.3-18,38.8-34.6,52.1
					c59.9,64.6,151.6,99.2,236,116.2c173.7,35.7,359.1,0.6,509.5-114.7c40.1-30.1,70.2-65.2,105.3-105.3c5-10,15-25.1,25.1-35.1
					c70.2-115.3,110.3-240.6,107-369.6"/>
				<path class="st4" d="M331.5,1.4c-1.5,90-16,179.8-45.1,265c-26.7,78.3-65.6,152.4-115.4,218.4C122.6,548.9,64.2,605.3-1.5,651.5
					c-65.6,46.1-138.2,82.1-214.5,106.6c-77.8,25-159.3,38.1-240.9,39.2c-99.8,1.4-200.6-13.3-294.5-47.6
					c-75.4-27.5-147.8-68-205.4-124.6c-43.1-42.4-80-96.3-89.1-157.3c-11.4-76.3,28.1-159.8,110.4-171.2
					c90.8-12.5,167.4,70.4,140.3,160.1c-6.1,20.3-18,38.8-34.6,52.1c59.9,64.6,151.6,99.2,236,116.2
					c173.7,35.7,359.1,0.6,509.5-114.7c40.1-30.1,70.2-65.2,105.3-105.3c5-10,15-25.1,25.1-35.1c70.2-115.3,110.3-240.6,107-369.6"
					/>
			</g>
		</g>
		<rect x="-7.5" y="3188" class="st0" width="2548.5" height="1593.8"/>
		<rect x="-5.5" y="4781.8" class="st1" width="2548.5" height="1593.8"/>
		<g class="st5">
			<defs>
				<rect id="SVGID_3_" x="-3" y="4786.6" class="st5" width="2548.5" height="1593.8"/>
			</defs>
			<clipPath id="SVGID_4_">
				<use xlink:href="#SVGID_3_"  style="overflow:visible;"/>
			</clipPath>
			<path class="st6" d="M-773.3,6379.5c1.4-86.1,15.3-172.1,43.2-253.7c25.6-75,62.8-145.9,110.5-209.2
				c46.3-61.4,102.2-115.4,165.1-159.6c62.8-44.2,132.3-78.6,205.4-102c74.5-23.9,152.5-36.4,230.7-37.5
				c95.6-1.3,192.1,12.7,282,45.6c72.2,26.4,141.5,65.1,196.6,119.3c41.3,40.6,76.6,92.2,85.3,150.6c10.9,73.1-26.9,153-105.7,163.9
				c-86.9,12-160.3-67.4-134.4-153.3c5.9-19.5,17.2-37.1,33.2-49.9c-57.3-61.8-145.2-95-226-111.3
				c-166.3-34.2-343.9-0.6-487.9,109.8c-38.4,28.8-67.2,62.4-100.8,100.8c-4.8,9.6-14.4,24-24,33.6
				c-67.2,110.4-105.6,230.4-102.5,353.8"/>
			<path class="st6" d="M-1099.2,6379.5c1.4-86.1,15.3-172.1,43.2-253.7c25.6-75,62.8-145.9,110.5-209.2
				c46.3-61.4,102.2-115.4,165.1-159.6c62.8-44.2,132.3-78.6,205.4-102c74.5-23.9,152.5-36.4,230.7-37.5
				c95.6-1.3,192.1,12.7,282,45.6c72.2,26.4,141.5,65.1,196.6,119.3c41.3,40.6,76.6,92.2,85.3,150.6c10.9,73.1-26.9,153-105.7,163.9
				c-86.9,12-160.3-67.4-134.4-153.3c5.9-19.5,17.2-37.1,33.2-49.9c-57.3-61.8-145.2-95-226-111.3
				c-166.3-34.2-343.9-0.6-487.9,109.8c-38.4,28.8-67.2,62.4-100.8,100.8c-4.8,9.6-14.4,24-24,33.6
				c-67.2,110.4-105.6,230.4-102.5,353.8"/>
			<path class="st6" d="M-136.6,6379.5c1.4-86.1,15.3-172.1,43.2-253.7c25.6-75,62.8-145.9,110.5-209.2
				c46.3-61.4,102.2-115.4,165.1-159.6c62.8-44.2,132.3-78.6,205.4-102c74.5-23.9,152.5-36.4,230.7-37.5
				c95.6-1.3,192.1,12.7,282,45.6c72.2,26.4,141.5,65.1,196.6,119.3c41.3,40.6,76.6,92.2,85.3,150.6c10.9,73.1-26.9,153-105.7,163.9
				c-86.9,12-160.3-67.4-134.4-153.3c5.9-19.5,17.2-37.1,33.2-49.9c-57.3-61.8-145.2-95-226-111.3
				c-166.3-34.2-343.9-0.6-487.9,109.8c-38.4,28.8-67.2,62.4-100.8,100.8c-4.8,9.6-14.4,24-24,33.6C69.4,6137,31,6256.9,34.1,6380.4
				"/>
			<path class="st6" d="M-462.5,6379.5c1.4-86.1,15.3-172.1,43.2-253.7c25.6-75,62.8-145.9,110.5-209.2
				c46.3-61.4,102.2-115.4,165.1-159.6c62.8-44.2,132.3-78.6,205.4-102c74.5-23.9,152.5-36.4,230.7-37.5
				c95.6-1.3,192.1,12.7,282,45.6c72.2,26.4,141.5,65.1,196.6,119.3c41.3,40.6,76.6,92.2,85.3,150.6c10.9,73.1-26.9,153-105.7,163.9
				c-86.9,12-160.3-67.4-134.4-153.3c5.9-19.5,17.2-37.1,33.2-49.9c-57.3-61.8-145.2-95-226-111.3
				c-166.3-34.2-343.9-0.6-487.9,109.8c-38.4,28.8-67.2,62.4-100.8,100.8c-4.8,9.6-14.4,24-24,33.6
				c-67.2,110.4-105.6,230.4-102.5,353.8"/>
			<path class="st6" d="M476,6379.5c1.4-86.1,15.3-172.1,43.2-253.7c25.6-75,62.8-145.9,110.5-209.2
				c46.3-61.4,102.2-115.4,165.1-159.6c62.8-44.2,132.3-78.6,205.4-102c74.5-23.9,152.5-36.4,230.7-37.5
				c95.6-1.3,192.1,12.7,282,45.6c72.2,26.4,141.5,65.1,196.6,119.3c41.3,40.6,76.6,92.2,85.3,150.6c10.9,73.1-26.9,153-105.7,163.9
				c-86.9,12-160.3-67.4-134.4-153.3c5.9-19.5,17.2-37.1,33.2-49.9c-57.3-61.8-145.2-95-226-111.3
				c-166.3-34.2-343.9-0.6-487.9,109.8c-38.4,28.8-67.2,62.4-100.8,100.8c-4.8,9.6-14.4,24-24,33.6
				C682,6137,643.6,6256.9,646.7,6380.4"/>
			<path class="st6" d="M150.1,6379.5c1.4-86.1,15.3-172.1,43.2-253.7c25.6-75,62.8-145.9,110.5-209.2
				c46.3-61.4,102.2-115.4,165.1-159.6c62.8-44.2,132.3-78.6,205.4-102c74.5-23.9,152.5-36.4,230.7-37.5
				c95.6-1.3,192.1,12.7,282,45.6c72.2,26.4,141.5,65.1,196.6,119.3c41.3,40.6,76.6,92.2,85.3,150.6c10.9,73.1-26.9,153-105.7,163.9
				c-86.9,12-160.3-67.4-134.4-153.3c5.9-19.5,17.2-37.1,33.2-49.9c-57.3-61.8-145.2-95-226-111.3
				c-166.3-34.2-343.9-0.6-487.9,109.8c-38.4,28.8-67.2,62.4-100.8,100.8c-4.8,9.6-14.4,24-24,33.6
				c-67.2,110.4-105.6,230.4-102.5,353.8"/>
			<path class="st6" d="M1112.7,6379.5c1.4-86.1,15.3-172.1,43.2-253.7c25.6-75,62.8-145.9,110.5-209.2
				c46.3-61.4,102.2-115.4,165.1-159.6c62.8-44.2,132.3-78.6,205.4-102c74.5-23.9,152.5-36.4,230.7-37.5
				c95.6-1.3,192.1,12.7,282,45.6c72.2,26.4,141.5,65.1,196.6,119.3c41.3,40.6,76.6,92.2,85.3,150.6c10.9,73.1-26.9,153-105.7,163.9
				c-86.9,12-160.3-67.4-134.4-153.3c5.9-19.5,17.2-37.1,33.2-49.9c-57.3-61.8-145.2-95-226-111.3
				c-166.3-34.2-343.9-0.6-487.9,109.8c-38.4,28.8-67.2,62.4-100.8,100.8c-4.8,9.6-14.4,24-24,33.6
				c-67.2,110.4-105.6,230.4-102.5,353.8"/>
			<path class="st6" d="M786.8,6379.5c1.4-86.1,15.3-172.1,43.2-253.7c25.6-75,62.8-145.9,110.5-209.2
				c46.3-61.4,102.2-115.4,165.1-159.6c62.8-44.2,132.3-78.6,205.4-102c74.5-23.9,152.5-36.4,230.7-37.5
				c95.6-1.3,192.1,12.7,282,45.6c72.2,26.4,141.5,65.1,196.6,119.3c41.3,40.6,76.6,92.2,85.3,150.6c10.9,73.1-26.9,153-105.7,163.9
				c-86.9,12-160.3-67.4-134.4-153.3c5.9-19.5,17.2-37.1,33.2-49.9c-57.3-61.8-145.2-95-226-111.3
				c-166.3-34.2-343.9-0.6-487.9,109.8c-38.4,28.8-67.2,62.4-100.8,100.8c-4.8,9.6-14.4,24-24,33.6
				c-67.2,110.4-105.6,230.4-102.5,353.8"/>
			<path class="st6" d="M1725.2,6379.5c1.4-86.1,15.3-172.1,43.2-253.7c25.6-75,62.8-145.9,110.5-209.2
				c46.3-61.4,102.2-115.4,165.1-159.6c62.8-44.2,132.3-78.6,205.4-102c74.5-23.9,152.5-36.4,230.7-37.5
				c95.6-1.3,192.1,12.7,282,45.6c72.2,26.4,141.5,65.1,196.6,119.3c41.3,40.6,76.6,92.2,85.3,150.6c10.9,73.1-26.9,153-105.7,163.9
				c-86.9,12-160.3-67.4-134.4-153.3c5.9-19.5,17.2-37.1,33.2-49.9c-57.3-61.8-145.2-95-226-111.3
				c-166.3-34.2-343.9-0.6-487.9,109.8c-38.4,28.8-67.2,62.4-100.8,100.8c-4.8,9.6-14.4,24-24,33.6
				c-67.2,110.4-105.6,230.4-102.5,353.8"/>
			<path class="st6" d="M1399.4,6379.5c1.4-86.1,15.3-172.1,43.2-253.7c25.6-75,62.8-145.9,110.5-209.2
				c46.3-61.4,102.2-115.4,165.1-159.6c62.8-44.2,132.3-78.6,205.4-102c74.5-23.9,152.5-36.4,230.7-37.5
				c95.6-1.3,192.1,12.7,282,45.6c72.2,26.4,141.5,65.1,196.6,119.3c41.3,40.6,76.6,92.2,85.3,150.6c10.9,73.1-26.9,153-105.7,163.9
				c-86.9,12-160.3-67.4-134.4-153.3c5.9-19.5,17.2-37.1,33.2-49.9c-57.3-61.8-145.2-95-226-111.3
				c-166.3-34.2-343.9-0.6-487.9,109.8c-38.4,28.8-67.2,62.4-100.8,100.8c-4.8,9.6-14.4,24-24,33.6
				c-67.2,110.4-105.6,230.4-102.5,353.8"/>
			<path class="st6" d="M2361.9,6379.5c1.4-86.1,15.3-172.1,43.2-253.7c25.6-75,62.8-145.9,110.5-209.2
				c46.3-61.4,102.2-115.4,165.1-159.6c62.8-44.2,132.3-78.6,205.4-102c74.5-23.9,152.5-36.4,230.7-37.5
				c95.6-1.3,192.1,12.7,282,45.6c72.2,26.4,141.5,65.1,196.6,119.3c41.3,40.6,76.6,92.2,85.3,150.6c10.9,73.1-26.9,153-105.7,163.9
				c-86.9,12-160.3-67.4-134.4-153.3c5.9-19.5,17.2-37.1,33.2-49.9c-57.3-61.8-145.2-95-226-111.3
				c-166.3-34.2-343.9-0.6-487.9,109.8c-38.4,28.8-67.2,62.4-100.8,100.8c-4.8,9.6-14.4,24-24,33.6
				c-67.2,110.4-105.6,230.4-102.5,353.8"/>
			<path class="st6" d="M2036.1,6379.5c1.4-86.1,15.3-172.1,43.2-253.7c25.6-75,62.8-145.9,110.5-209.2
				c46.3-61.4,102.2-115.4,165.1-159.6c62.8-44.2,132.3-78.6,205.4-102c74.5-23.9,152.5-36.4,230.7-37.5
				c95.6-1.3,192.1,12.7,282,45.6c72.2,26.4,141.5,65.1,196.6,119.3c41.3,40.6,76.6,92.2,85.3,150.6c10.9,73.1-26.9,153-105.7,163.9
				c-86.9,12-160.3-67.4-134.4-153.3c5.9-19.5,17.2-37.1,33.2-49.9c-57.3-61.8-145.2-95-226-111.3
				c-166.3-34.2-343.9-0.6-487.9,109.8c-38.4,28.8-67.2,62.4-100.8,100.8c-4.8,9.6-14.4,24-24,33.6
				c-67.2,110.4-105.6,230.4-102.5,353.8"/>
		</g>
		<text transform="matrix(1 0 0 1 795.1411 904.6039)" class="st7 st8 st9">archer</text>
		<g class="st10">
			<defs>
				<rect id="SVGID_5_" x="1291.3" y="2181.9" class="st10" width="818.7" height="1006.1"/>
			</defs>
			<clipPath id="SVGID_6_">
				<use xlink:href="#SVGID_5_"  style="overflow:visible;"/>
			</clipPath>
			<g class="st11">
				<path class="st12" d="M919.6,3895h222.7l582.5-1586.1h-264.3v-12.2h563v12.2h-269.2L2336.8,3895h222.7v12.2h-523.8V3895h286.4
					L2092,3268.4h-704.9L1157,3895h286.4v12.2H919.6V3895z M2087.1,3256.2l-347.6-947.2L1392,3256.2H2087.1z"/>
			</g>
		</g>
		<path class="st13" d="M150.6,1595.1c1.4,86.1,15.3,172.1,43.2,253.7c25.6,75,62.8,145.9,110.5,209.2
			c46.3,61.4,102.2,115.4,165.1,159.6c62.8,44.2,132.3,78.6,205.4,102c74.5,23.9,152.5,36.4,230.7,37.5
			c95.6,1.3,192.1-12.7,282-45.6c72.2-26.4,141.5-65.1,196.6-119.3c41.3-40.6,76.6-92.2,85.3-150.6c10.9-73.1-26.9-153-105.7-163.9
			c-86.9-12-160.3,67.4-134.4,153.3c5.9,19.5,17.2,37.1,33.2,49.9c-57.3,61.8-145.2,95-226,111.3c-166.3,34.2-343.9,0.6-487.9-109.8
			c-38.4-28.8-67.2-62.4-100.8-100.8c-4.8-9.6-14.4-24-24-33.6c-67.2-110.4-105.6-230.4-102.5-353.8"/>
		<text transform="matrix(1.0291 0 0 1 44.7881 2107.7498)" class="st14"><tspan x="0" y="0" class="st15 st8 st16">ball </tspan><tspan x="0" y="160.3" class="st15 st8 st16">terminal</tspan></text>
		<text transform="matrix(1.0291 0 0 1 1688.6925 2916.3518)" class="st14"><tspan x="0" y="0" class="st15 st8 st17">slab </tspan><tspan x="0" y="199.2" class="st15 st8 st17">serif</tspan></text>
		<g>
			<defs>
				<rect id="SVGID_7_" x="-6.3" y="2391.1" width="990.9" height="796.9"/>
			</defs>
			<clipPath id="SVGID_8_">
				<use xlink:href="#SVGID_7_"  style="overflow:visible;"/>
			</clipPath>
			<g class="st18">
				<text transform="matrix(1 0 0 1 -194.7331 3569.9668)" class="st12 st19 st20">&amp;</text>
			</g>
		</g>
		<rect x="1471.1" y="1598.2" class="st21" width="1071.9" height="647.5"/>
		<g>
			<defs>
				<rect id="SVGID_9_" x="566.5" y="1596.2" width="569.6" height="428.3"/>
			</defs>
			<clipPath id="SVGID_10_">
				<use xlink:href="#SVGID_9_"  style="overflow:visible;"/>
			</clipPath>
			<g class="st22">
				<text transform="matrix(1 0 0 1 566.525 1975.7529)" class="st0 st23 st24">s</text>
			</g>
		</g>
		<g class="st25">
			<defs>
				<rect id="SVGID_11_" x="1570.1" y="1273.8" class="st25" width="798.6" height="320.4"/>
			</defs>
			<clipPath id="SVGID_12_">
				<use xlink:href="#SVGID_11_"  style="overflow:visible;"/>
			</clipPath>
			<g class="st26">
				<text transform="matrix(0 -1 1 0 2561.696 2181.9475)" class="st27 st19 st20">7</text>
			</g>
		</g>
		<g>
			<defs>
				<rect id="SVGID_13_" x="1570.1" y="1596.2" width="972.9" height="587.7"/>
			</defs>
			<clipPath id="SVGID_14_">
				<use xlink:href="#SVGID_13_"  style="overflow:visible;"/>
			</clipPath>
			<g class="st28">
				<text transform="matrix(0 -1 1 0 2561.7009 2181.95)" class="st12 st19 st20">7</text>
			</g>
		</g>
		<g class="st29">
			<defs>
				<rect id="SVGID_15_" x="-6.3" y="3190" class="st29" width="966" height="481.7"/>
			</defs>
			<clipPath id="SVGID_16_">
				<use xlink:href="#SVGID_15_"  style="overflow:visible;"/>
			</clipPath>
			<g class="st30">
				<text transform="matrix(1 0 0 1 -192.7714 3567.9346)" class="st27 st19 st20">&amp;</text>
			</g>
		</g>
		<g>
			<text transform="matrix(1 0 0 1 563.2819 5701.9102)" class="st31 st32 st33">buy now</text>
		</g>
		<g>
			<defs>
				<rect id="SVGID_17_" x="-5.5" y="4510" width="2541.5" height="271.8"/>
			</defs>
			<clipPath id="SVGID_18_">
				<use xlink:href="#SVGID_17_"  style="overflow:visible;"/>
			</clipPath>
			<g class="st34">
				<text transform="matrix(1 0 0 1 -84.5885 4946.3164)" class="st35 st32 st36">123456789</text>
			</g>
		</g>
		<g>
			<defs>
				<rect id="SVGID_19_" x="-5.5" y="4781.8" width="2547.5" height="278"/>
			</defs>
			<clipPath id="SVGID_20_">
				<use xlink:href="#SVGID_19_"  style="overflow:visible;"/>
			</clipPath>
			<g class="st37">
				<text transform="matrix(1 0 0 1 -84.5885 4946.3154)" class="st38 st32 st36">123456789</text>
			</g>
		</g>
		<text transform="matrix(1 0 0 1 566.5251 2747.738)" class="st39 st8 st40">Aa</text>
		<rect x="202.3" y="3640.4" class="st21" width="2048.1" height="941"/>
		<text transform="matrix(1 0 0 1 763.5282 3692.9246)"><tspan x="0" y="0" class="st39 st41 st42">Sweet but not saccharine, earnest but not grave, </tspan><tspan x="60.3" y="95.6" class="st39 st41 st42">Archer is designed to hit just the right notes of </tspan><tspan x="307.6" y="191.3" class="st39 st41 st42">forthrightness, credibility, and charm. </tspan><tspan x="-561.2" y="382.5" class="st1 st32 st42">Designed</tspan><tspan x="-283.5" y="382.5" class="st1 st32 st42 st43"> </tspan><tspan x="-248.5" y="382.5" class="st1 st32 st42">in</tspan><tspan x="-191.4" y="382.5" class="st1 st32 st42 st43"> </tspan><tspan x="-156.3" y="382.5" class="st1 st32 st42">2001</tspan><tspan x="-20.9" y="382.5" class="st1 st32 st42 st43"> </tspan><tspan x="14.1" y="382.5" class="st1 st32 st42">by</tspan><tspan x="84.5" y="382.5" class="st1 st32 st42 st43"> </tspan><tspan x="119.6" y="382.5" class="st1 st32 st42">Hoefler&amp;Co.</tspan><tspan x="473.4" y="382.5" class="st1 st32 st42 st43"> </tspan><tspan x="508.4" y="382.5" class="st1 st32 st42">It</tspan><tspan x="554.3" y="382.5" class="st1 st32 st42 st43"> </tspan><tspan x="589.3" y="382.5" class="st1 st32 st42">combines</tspan><tspan x="867.7" y="382.5" class="st1 st32 st42 st43"> </tspan><tspan x="902.7" y="382.5" class="st1 st32 st42">the</tspan><tspan x="994.8" y="382.5" class="st1 st32 st42 st43"> </tspan><tspan x="1029.8" y="382.5" class="st1 st32 st42">ordinariness</tspan><tspan x="1395.6" y="382.5" class="st1 st32 st42 st43"> </tspan><tspan x="1430.6" y="382.5" class="st1 st32 st42">of </tspan><tspan x="-561.2" y="478.1" class="st1 st32 st42">antique</tspan><tspan x="-335.6" y="478.1" class="st1 st32 st42 st44"> </tspan><tspan x="-298.8" y="478.1" class="st1 st32 st42">slab</tspan><tspan x="-176.4" y="478.1" class="st1 st32 st42 st44"> </tspan><tspan x="-139.6" y="478.1" class="st1 st32 st42">serifs</tspan><tspan x="15" y="478.1" class="st1 st32 st42 st44"> </tspan><tspan x="51.8" y="478.1" class="st1 st32 st42">with</tspan><tspan x="176.4" y="478.1" class="st1 st32 st42 st44"> </tspan><tspan x="213.2" y="478.1" class="st1 st32 st42">the</tspan><tspan x="305.3" y="478.1" class="st1 st32 st42 st44"> </tspan><tspan x="342" y="478.1" class="st1 st32 st42">modern</tspan><tspan x="566.6" y="478.1" class="st1 st32 st42 st44"> </tspan><tspan x="603.4" y="478.1" class="st1 st32 st42">practicality</tspan><tspan x="942.5" y="478.1" class="st1 st32 st42 st44"> </tspan><tspan x="979.3" y="478.1" class="st1 st32 st42">of</tspan><tspan x="1035.6" y="478.1" class="st1 st32 st42 st44"> </tspan><tspan x="1072.4" y="478.1" class="st1 st32 st42">geometrics.</tspan><tspan x="1404.3" y="478.1" class="st1 st32 st42 st44"> </tspan><tspan x="1441.1" y="478.1" class="st1 st32 st42">It </tspan><tspan x="-561.2" y="573.8" class="st1 st32 st42">restored</tspan><tspan x="-321.7" y="573.8" class="st1 st32 st42 st45"> </tspan><tspan x="-292.3" y="573.8" class="st1 st32 st42">the</tspan><tspan x="-200.3" y="573.8" class="st1 st32 st42 st45"> </tspan><tspan x="-171" y="573.8" class="st1 st32 st42">vanished</tspan><tspan x="94.8" y="573.8" class="st1 st32 st42 st45"> </tspan><tspan x="124.2" y="573.8" class="st1 st32 st42">‘ball</tspan><tspan x="248.8" y="573.8" class="st1 st32 st42 st45"> </tspan><tspan x="278.1" y="573.8" class="st1 st32 st42">terminals’</tspan><tspan x="567.8" y="573.8" class="st1 st32 st42 st45"> </tspan><tspan x="597.1" y="573.8" class="st1 st32 st42">to</tspan><tspan x="654.7" y="573.8" class="st1 st32 st42 st45"> </tspan><tspan x="684.1" y="573.8" class="st1 st32 st42">yield</tspan><tspan x="827.9" y="573.8" class="st1 st32 st42 st45"> </tspan><tspan x="857.3" y="573.8" class="st1 st32 st42">a</tspan><tspan x="896.1" y="573.8" class="st1 st32 st42 st45"> </tspan><tspan x="925.5" y="573.8" class="st1 st32 st42">font</tspan><tspan x="1041.3" y="573.8" class="st1 st32 st42 st45"> </tspan><tspan x="1070.7" y="573.8" class="st1 st32 st42">that’s</tspan><tspan x="1231.5" y="573.8" class="st1 st32 st42 st45"> </tspan><tspan x="1260.9" y="573.8" class="st1 st32 st42">friendly </tspan><tspan x="-561.2" y="669.4" class="st1 st32 st42">without</tspan><tspan x="-341.6" y="669.4" class="st1 st32 st42 st46"> </tspan><tspan x="-323.4" y="669.4" class="st1 st32 st42">being</tspan><tspan x="-159.6" y="669.4" class="st1 st32 st42 st46"> </tspan><tspan x="-141.5" y="669.4" class="st1 st32 st42">silly.</tspan><tspan x="-11.6" y="669.4" class="st1 st32 st42 st46"> </tspan><tspan x="6.5" y="669.4" class="st1 st32 st42">The</tspan><tspan x="120.4" y="669.4" class="st1 st32 st42 st46"> </tspan><tspan x="138.5" y="669.4" class="st1 st32 st42">result</tspan><tspan x="301.9" y="669.4" class="st1 st32 st42 st46"> </tspan><tspan x="320" y="669.4" class="st1 st32 st42">is</tspan><tspan x="368.2" y="669.4" class="st1 st32 st42 st46"> </tspan><tspan x="386.3" y="669.4" class="st1 st32 st42">a</tspan><tspan x="425.2" y="669.4" class="st1 st32 st42 st46"> </tspan><tspan x="443.3" y="669.4" class="st1 st32 st42">typeface</tspan><tspan x="695" y="669.4" class="st1 st32 st42 st46"> </tspan><tspan x="713.1" y="669.4" class="st1 st32 st42">that’s</tspan><tspan x="874" y="669.4" class="st1 st32 st42 st46"> </tspan><tspan x="892.1" y="669.4" class="st1 st32 st42">well-mannered,</tspan><tspan x="1334.8" y="669.4" class="st1 st32 st42 st46"> </tspan><tspan x="1352.9" y="669.4" class="st1 st32 st42">easy </tspan><tspan x="523.4" y="765" class="st1 st32 st42">to work with, and inviting to read.</tspan><tspan x="1086.5" y="860.6" class="st1 st47 st42">-Hoefler&amp;Co. </tspan></text>
		<text transform="matrix(1 0 0 1 936.6693 1016.1799)" class="st39 st48 st49 st46">the font that’s just right</text>
		<rect x="-3" y="0.5" class="st50" width="2548.5" height="6380"/>
		<rect x="-5.5" y="0" class="st0" width="2548.5" height="1593.8"/>
		<rect x="-4.7" y="1593.8" class="st1" width="2548.5" height="1593.8"/>
		<g>
			<defs>
				<rect id="SVGID_21_" x="-3" width="2548.5" height="1593.8"/>
			</defs>
			<clipPath id="SVGID_22_">
				<use xlink:href="#SVGID_21_"  style="overflow:visible;"/>
			</clipPath>
			<path class="st51" d="M-773.3,1592.9c1.4-86.1,15.3-172.1,43.2-253.7c25.6-75,62.8-145.9,110.5-209.2
				c46.3-61.4,102.2-115.4,165.1-159.6c62.8-44.2,132.3-78.6,205.4-102c74.5-23.9,152.5-36.4,230.7-37.5
				c95.6-1.3,192.1,12.7,282,45.6c72.2,26.4,141.5,65.1,196.6,119.3c41.3,40.6,76.6,92.2,85.3,150.6c10.9,73.1-26.9,153-105.7,163.9
				c-86.9,12-160.3-67.4-134.4-153.3c5.9-19.5,17.2-37.1,33.2-49.9c-57.3-61.8-145.2-95-226-111.3
				c-166.3-34.2-343.9-0.6-487.9,109.8c-38.4,28.8-67.2,62.4-100.8,100.8c-4.8,9.6-14.4,24-24,33.6
				c-67.2,110.4-105.6,230.4-102.5,353.8"/>
			<path class="st51" d="M-1099.2,1592.9c1.4-86.1,15.3-172.1,43.2-253.7c25.6-75,62.8-145.9,110.5-209.2
				c46.3-61.4,102.2-115.4,165.1-159.6c62.8-44.2,132.3-78.6,205.4-102c74.5-23.9,152.5-36.4,230.7-37.5
				c95.6-1.3,192.1,12.7,282,45.6c72.2,26.4,141.5,65.1,196.6,119.3c41.3,40.6,76.6,92.2,85.3,150.6c10.9,73.1-26.9,153-105.7,163.9
				c-86.9,12-160.3-67.4-134.4-153.3c5.9-19.5,17.2-37.1,33.2-49.9c-57.3-61.8-145.2-95-226-111.3
				c-166.3-34.2-343.9-0.6-487.9,109.8c-38.4,28.8-67.2,62.4-100.8,100.8c-4.8,9.6-14.4,24-24,33.6
				c-67.2,110.4-105.6,230.4-102.5,353.8"/>
			<path class="st51" d="M-136.6,1592.9c1.4-86.1,15.3-172.1,43.2-253.7c25.6-75,62.8-145.9,110.5-209.2
				c46.3-61.4,102.2-115.4,165.1-159.6c62.8-44.2,132.3-78.6,205.4-102c74.5-23.9,152.5-36.4,230.7-37.5
				c95.6-1.3,192.1,12.7,282,45.6c72.2,26.4,141.5,65.1,196.6,119.3c41.3,40.6,76.6,92.2,85.3,150.6c10.9,73.1-26.9,153-105.7,163.9
				c-86.9,12-160.3-67.4-134.4-153.3c5.9-19.5,17.2-37.1,33.2-49.9c-57.3-61.8-145.2-95-226-111.3
				c-166.3-34.2-343.9-0.6-487.9,109.8c-38.4,28.8-67.2,62.4-100.8,100.8c-4.8,9.6-14.4,24-24,33.6
				C69.4,1350.3,31,1470.3,34.1,1593.8"/>
			<path class="st51" d="M-462.5,1592.9c1.4-86.1,15.3-172.1,43.2-253.7c25.6-75,62.8-145.9,110.5-209.2
				c46.3-61.4,102.2-115.4,165.1-159.6c62.8-44.2,132.3-78.6,205.4-102c74.5-23.9,152.5-36.4,230.7-37.5
				c95.6-1.3,192.1,12.7,282,45.6c72.2,26.4,141.5,65.1,196.6,119.3c41.3,40.6,76.6,92.2,85.3,150.6c10.9,73.1-26.9,153-105.7,163.9
				c-86.9,12-160.3-67.4-134.4-153.3c5.9-19.5,17.2-37.1,33.2-49.9c-57.3-61.8-145.2-95-226-111.3
				c-166.3-34.2-343.9-0.6-487.9,109.8c-38.4,28.8-67.2,62.4-100.8,100.8c-4.8,9.6-14.4,24-24,33.6
				c-67.2,110.4-105.6,230.4-102.5,353.8"/>
			<path class="st51" d="M476,1592.9c1.4-86.1,15.3-172.1,43.2-253.7c25.6-75,62.8-145.9,110.5-209.2
				c46.3-61.4,102.2-115.4,165.1-159.6c62.8-44.2,132.3-78.6,205.4-102c74.5-23.9,152.5-36.4,230.7-37.5
				c95.6-1.3,192.1,12.7,282,45.6c72.2,26.4,141.5,65.1,196.6,119.3c41.3,40.6,76.6,92.2,85.3,150.6c10.9,73.1-26.9,153-105.7,163.9
				c-86.9,12-160.3-67.4-134.4-153.3c5.9-19.5,17.2-37.1,33.2-49.9c-57.3-61.8-145.2-95-226-111.3
				c-166.3-34.2-343.9-0.6-487.9,109.8c-38.4,28.8-67.2,62.4-100.8,100.8c-4.8,9.6-14.4,24-24,33.6
				c-67.2,110.4-105.6,230.4-102.5,353.8"/>
			<path class="st51" d="M150.1,1592.9c1.4-86.1,15.3-172.1,43.2-253.7c25.6-75,62.8-145.9,110.5-209.2
				c46.3-61.4,102.2-115.4,165.1-159.6c62.8-44.2,132.3-78.6,205.4-102c74.5-23.9,152.5-36.4,230.7-37.5
				c95.6-1.3,192.1,12.7,282,45.6c72.2,26.4,141.5,65.1,196.6,119.3c41.3,40.6,76.6,92.2,85.3,150.6c10.9,73.1-26.9,153-105.7,163.9
				c-86.9,12-160.3-67.4-134.4-153.3c5.9-19.5,17.2-37.1,33.2-49.9c-57.3-61.8-145.2-95-226-111.3
				c-166.3-34.2-343.9-0.6-487.9,109.8c-38.4,28.8-67.2,62.4-100.8,100.8c-4.8,9.6-14.4,24-24,33.6
				c-67.2,110.4-105.6,230.4-102.5,353.8"/>
			<path class="st51" d="M1112.7,1592.9c1.4-86.1,15.3-172.1,43.2-253.7c25.6-75,62.8-145.9,110.5-209.2
				c46.3-61.4,102.2-115.4,165.1-159.6c62.8-44.2,132.3-78.6,205.4-102c74.5-23.9,152.5-36.4,230.7-37.5
				c95.6-1.3,192.1,12.7,282,45.6c72.2,26.4,141.5,65.1,196.6,119.3c41.3,40.6,76.6,92.2,85.3,150.6c10.9,73.1-26.9,153-105.7,163.9
				c-86.9,12-160.3-67.4-134.4-153.3c5.9-19.5,17.2-37.1,33.2-49.9c-57.3-61.8-145.2-95-226-111.3
				c-166.3-34.2-343.9-0.6-487.9,109.8c-38.4,28.8-67.2,62.4-100.8,100.8c-4.8,9.6-14.4,24-24,33.6
				c-67.2,110.4-105.6,230.4-102.5,353.8"/>
			<path class="st51" d="M786.8,1592.9c1.4-86.1,15.3-172.1,43.2-253.7c25.6-75,62.8-145.9,110.5-209.2
				c46.3-61.4,102.2-115.4,165.1-159.6c62.8-44.2,132.3-78.6,205.4-102c74.5-23.9,152.5-36.4,230.7-37.5
				c95.6-1.3,192.1,12.7,282,45.6c72.2,26.4,141.5,65.1,196.6,119.3c41.3,40.6,76.6,92.2,85.3,150.6c10.9,73.1-26.9,153-105.7,163.9
				c-86.9,12-160.3-67.4-134.4-153.3c5.9-19.5,17.2-37.1,33.2-49.9c-57.3-61.8-145.2-95-226-111.3
				c-166.3-34.2-343.9-0.6-487.9,109.8c-38.4,28.8-67.2,62.4-100.8,100.8c-4.8,9.6-14.4,24-24,33.6
				c-67.2,110.4-105.6,230.4-102.5,353.8"/>
			<path class="st51" d="M1725.2,1592.9c1.4-86.1,15.3-172.1,43.2-253.7c25.6-75,62.8-145.9,110.5-209.2
				c46.3-61.4,102.2-115.4,165.1-159.6c62.8-44.2,132.3-78.6,205.4-102c74.5-23.9,152.5-36.4,230.7-37.5
				c95.6-1.3,192.1,12.7,282,45.6c72.2,26.4,141.5,65.1,196.6,119.3c41.3,40.6,76.6,92.2,85.3,150.6c10.9,73.1-26.9,153-105.7,163.9
				c-86.9,12-160.3-67.4-134.4-153.3c5.9-19.5,17.2-37.1,33.2-49.9c-57.3-61.8-145.2-95-226-111.3
				c-166.3-34.2-343.9-0.6-487.9,109.8c-38.4,28.8-67.2,62.4-100.8,100.8c-4.8,9.6-14.4,24-24,33.6
				c-67.2,110.4-105.6,230.4-102.5,353.8"/>
			<path class="st51" d="M1399.4,1592.9c1.4-86.1,15.3-172.1,43.2-253.7c25.6-75,62.8-145.9,110.5-209.2
				c46.3-61.4,102.2-115.4,165.1-159.6c62.8-44.2,132.3-78.6,205.4-102c74.5-23.9,152.5-36.4,230.7-37.5
				c95.6-1.3,192.1,12.7,282,45.6c72.2,26.4,141.5,65.1,196.6,119.3c41.3,40.6,76.6,92.2,85.3,150.6c10.9,73.1-26.9,153-105.7,163.9
				c-86.9,12-160.3-67.4-134.4-153.3c5.9-19.5,17.2-37.1,33.2-49.9c-57.3-61.8-145.2-95-226-111.3
				c-166.3-34.2-343.9-0.6-487.9,109.8c-38.4,28.8-67.2,62.4-100.8,100.8c-4.8,9.6-14.4,24-24,33.6
				c-67.2,110.4-105.6,230.4-102.5,353.8"/>
			<path class="st51" d="M2361.9,1592.9c1.4-86.1,15.3-172.1,43.2-253.7c25.6-75,62.8-145.9,110.5-209.2
				c46.3-61.4,102.2-115.4,165.1-159.6c62.8-44.2,132.3-78.6,205.4-102c74.5-23.9,152.5-36.4,230.7-37.5
				c95.6-1.3,192.1,12.7,282,45.6c72.2,26.4,141.5,65.1,196.6,119.3c41.3,40.6,76.6,92.2,85.3,150.6c10.9,73.1-26.9,153-105.7,163.9
				c-86.9,12-160.3-67.4-134.4-153.3c5.9-19.5,17.2-37.1,33.2-49.9c-57.3-61.8-145.2-95-226-111.3
				c-166.3-34.2-343.9-0.6-487.9,109.8c-38.4,28.8-67.2,62.4-100.8,100.8c-4.8,9.6-14.4,24-24,33.6
				c-67.2,110.4-105.6,230.4-102.5,353.8"/>
			<path class="st51" d="M2036.1,1592.9c1.4-86.1,15.3-172.1,43.2-253.7c25.6-75,62.8-145.9,110.5-209.2
				c46.3-61.4,102.2-115.4,165.1-159.6c62.8-44.2,132.3-78.6,205.4-102c74.5-23.9,152.5-36.4,230.7-37.5
				c95.6-1.3,192.1,12.7,282,45.6c72.2,26.4,141.5,65.1,196.6,119.3c41.3,40.6,76.6,92.2,85.3,150.6c10.9,73.1-26.9,153-105.7,163.9
				c-86.9,12-160.3-67.4-134.4-153.3c5.9-19.5,17.2-37.1,33.2-49.9c-57.3-61.8-145.2-95-226-111.3
				c-166.3-34.2-343.9-0.6-487.9,109.8c-38.4,28.8-67.2,62.4-100.8,100.8c-4.8,9.6-14.4,24-24,33.6
				c-67.2,110.4-105.6,230.4-102.5,353.8"/>
			<g class="st52">
				<path class="st4" d="M3265.5,0.9c-1.5,90-16,179.8-45.1,265c-26.7,78.3-65.6,152.4-115.4,218.4
					c-48.3,64.1-106.7,120.5-172.4,166.7c-65.6,46.1-138.2,82.1-214.5,106.6c-77.8,25-159.3,38.1-240.9,39.2
					c-99.8,1.4-200.6-13.3-294.5-47.6c-75.4-27.5-147.8-68-205.4-124.6c-43.1-42.4-80-96.3-89.1-157.3
					c-11.4-76.3,28.1-159.8,110.4-171.2c90.8-12.5,167.4,70.4,140.3,160.1c-6.1,20.3-18,38.8-34.6,52.1
					c59.9,64.6,151.6,99.2,236,116.2c173.7,35.7,359.1,0.6,509.5-114.7c40.1-30.1,70.2-65.2,105.3-105.3c5-10,15-25.1,25.1-35.1
					c70.2-115.3,110.3-240.6,107-369.6"/>
				<path class="st4" d="M3605.9,0.9c-1.5,90-16,179.8-45.1,265c-26.7,78.3-65.6,152.4-115.4,218.4
					c-48.3,64.1-106.7,120.5-172.4,166.7c-65.6,46.1-138.2,82.1-214.5,106.6c-77.8,25-159.3,38.1-240.9,39.2
					c-99.8,1.4-200.6-13.3-294.5-47.6c-75.4-27.5-147.8-68-205.4-124.6c-43.1-42.4-80-96.3-89.1-157.3
					c-11.4-76.3,28.1-159.8,110.4-171.2c90.8-12.5,167.4,70.4,140.3,160.1c-6.1,20.3-18,38.8-34.6,52.1
					c59.9,64.6,151.6,99.2,236,116.2c173.7,35.7,359.1,0.6,509.5-114.7c40.1-30.1,70.2-65.2,105.3-105.3c5-10,15-25.1,25.1-35.1
					c70.2-115.3,110.3-240.6,107-369.6"/>
				<path class="st4" d="M2600.6,0.9c-1.5,90-16,179.8-45.1,265c-26.7,78.3-65.6,152.4-115.4,218.4
					c-48.3,64.1-106.7,120.5-172.4,166.7c-65.6,46.1-138.2,82.1-214.5,106.6c-77.8,25-159.3,38.1-240.9,39.2
					c-99.8,1.4-200.6-13.3-294.5-47.6c-75.4-27.5-147.8-68-205.4-124.6c-43.1-42.4-80-96.3-89.1-157.3
					c-11.4-76.3,28.1-159.8,110.4-171.2c90.8-12.5,167.4,70.4,140.3,160.1c-6.1,20.3-18,38.8-34.6,52.1
					c59.9,64.6,151.6,99.2,236,116.2c173.7,35.7,359.1,0.6,509.5-114.7c40.1-30.1,70.2-65.2,105.3-105.3c5-10,15-25.1,25.1-35.1
					c70.2-115.3,110.3-240.6,107-369.6"/>
				<path class="st4" d="M2940.9,0.9c-1.5,90-16,179.8-45.1,265c-26.7,78.3-65.6,152.4-115.4,218.4
					c-48.3,64.1-106.7,120.5-172.4,166.7c-65.6,46.1-138.2,82.1-214.5,106.6c-77.8,25-159.3,38.1-240.9,39.2
					c-99.8,1.4-200.6-13.3-294.5-47.6c-75.4-27.5-147.8-68-205.4-124.6c-43.1-42.4-80-96.3-89.1-157.3
					c-11.4-76.3,28.1-159.8,110.4-171.2c90.8-12.5,167.4,70.4,140.3,160.1c-6.1,20.3-18,38.8-34.6,52.1
					c59.9,64.6,151.6,99.2,236,116.2c173.7,35.7,359.1,0.6,509.5-114.7c40.1-30.1,70.2-65.2,105.3-105.3c5-10,15-25.1,25.1-35.1
					c70.2-115.3,110.3-240.6,107-369.6"/>
				<path class="st4" d="M1960.8,0.9c-1.5,90-16,179.8-45.1,265c-26.7,78.3-65.6,152.4-115.4,218.4
					c-48.3,64.1-106.7,120.5-172.4,166.7c-65.6,46.1-138.2,82.1-214.5,106.6c-77.8,25-159.3,38.1-240.9,39.2
					c-99.8,1.4-200.6-13.3-294.5-47.6c-75.4-27.5-147.8-68-205.4-124.6c-43.1-42.4-80-96.3-89.1-157.3
					C572.2,391,611.6,307.5,694,296.1c90.8-12.5,167.4,70.4,140.3,160.1c-6.1,20.3-18,38.8-34.6,52.1
					c59.9,64.6,151.6,99.2,236,116.2c173.7,35.7,359.1,0.6,509.5-114.7c40.1-30.1,70.2-65.2,105.3-105.3c5-10,15-25.1,25.1-35.1
					c70.2-115.3,110.3-240.6,107-369.6"/>
				<path class="st4" d="M2301.1,0.9c-1.5,90-16,179.8-45.1,265c-26.7,78.3-65.6,152.4-115.4,218.4
					c-48.3,64.1-106.7,120.5-172.4,166.7c-65.6,46.1-138.2,82.1-214.5,106.6c-77.8,25-159.3,38.1-240.9,39.2
					c-99.8,1.4-200.6-13.3-294.5-47.6c-75.4-27.5-147.8-68-205.4-124.6c-43.1-42.4-80-96.3-89.1-157.3
					C912.5,391,952,307.5,1034.3,296.1c90.8-12.5,167.4,70.4,140.3,160.1c-6.1,20.3-18,38.8-34.6,52.1
					c59.9,64.6,151.6,99.2,236,116.2c173.7,35.7,359.1,0.6,509.5-114.7c40.1-30.1,70.2-65.2,105.3-105.3c5-10,15-25.1,25.1-35.1
					C2086,254.3,2126.1,129,2122.8,0"/>
				<path class="st4" d="M1295.9,0.9c-1.5,90-16,179.8-45.1,265c-26.7,78.3-65.6,152.4-115.4,218.4
					c-48.3,64.1-106.7,120.5-172.4,166.7c-65.6,46.1-138.2,82.1-214.5,106.6c-77.8,25-159.3,38.1-240.9,39.2
					c-99.8,1.4-200.6-13.3-294.5-47.6c-75.4-27.5-147.8-68-205.4-124.6c-43.1-42.4-80-96.3-89.1-157.3
					C-92.8,391-53.3,307.5,29,296.1c90.8-12.5,167.4,70.4,140.3,160.1c-6.1,20.3-18,38.8-34.6,52.1c59.9,64.6,151.6,99.2,236,116.2
					c173.7,35.7,359.1,0.6,509.5-114.7c40.1-30.1,70.2-65.2,105.3-105.3c5-10,15-25.1,25.1-35.1c70.2-115.3,110.3-240.6,107-369.6"
					/>
				<path class="st4" d="M1636.2,0.9c-1.5,90-16,179.8-45.1,265c-26.7,78.3-65.6,152.4-115.4,218.4
					c-48.3,64.1-106.7,120.5-172.4,166.7c-65.6,46.1-138.2,82.1-214.5,106.6c-77.8,25-159.3,38.1-240.9,39.2
					c-99.8,1.4-200.6-13.3-294.5-47.6c-75.4-27.5-147.8-68-205.4-124.6c-43.1-42.4-80-96.3-89.1-157.3
					C247.5,391,287,307.5,369.3,296.1c90.8-12.5,167.4,70.4,140.3,160.1c-6.1,20.3-18,38.8-34.6,52.1
					c59.9,64.6,151.6,99.2,236,116.2c173.7,35.7,359.1,0.6,509.5-114.7c40.1-30.1,70.2-65.2,105.3-105.3c5-10,15-25.1,25.1-35.1
					C1421,254.3,1461.1,129,1457.9,0"/>
				<path class="st4" d="M656.1,0.9c-1.5,90-16,179.8-45.1,265c-26.7,78.3-65.6,152.4-115.4,218.4
					c-48.3,64.1-106.7,120.5-172.4,166.7c-65.6,46.1-138.2,82.1-214.5,106.6c-77.8,25-159.3,38.1-240.9,39.2
					c-99.8,1.4-200.6-13.3-294.5-47.6c-75.4-27.5-147.8-68-205.4-124.6c-43.1-42.4-80-96.3-89.1-157.3
					c-11.4-76.3,28.1-159.8,110.4-171.2c90.8-12.5,167.4,70.4,140.3,160.1c-6.1,20.3-18,38.8-34.6,52.1
					c59.9,64.6,151.6,99.2,236,116.2c173.7,35.7,359.1,0.6,509.5-114.7c40.1-30.1,70.2-65.2,105.3-105.3c5-10,15-25.1,25.1-35.1
					C440.9,254.3,481,129,477.8,0"/>
				<path class="st4" d="M996.4,0.9c-1.5,90-16,179.8-45.1,265c-26.7,78.3-65.6,152.4-115.4,218.4
					c-48.3,64.1-106.7,120.5-172.4,166.7c-65.6,46.1-138.2,82.1-214.5,106.6c-77.8,25-159.3,38.1-240.9,39.2
					c-99.8,1.4-200.6-13.3-294.5-47.6c-75.4-27.5-147.8-68-205.4-124.6c-43.1-42.4-80-96.3-89.1-157.3
					c-11.4-76.3,28.1-159.8,110.4-171.2c90.8-12.5,167.4,70.4,140.3,160.1c-6.1,20.3-18,38.8-34.6,52.1
					c59.9,64.6,151.6,99.2,236,116.2c173.7,35.7,359.1,0.6,509.5-114.7c40.1-30.1,70.2-65.2,105.3-105.3c5-10,15-25.1,25.1-35.1
					C781.3,254.3,821.4,129,818.1,0"/>
				<path class="st4" d="M-8.9,0.9c-1.5,90-16,179.8-45.1,265c-26.7,78.3-65.6,152.4-115.4,218.4
					c-48.3,64.1-106.7,120.5-172.4,166.7c-65.6,46.1-138.2,82.1-214.5,106.6c-77.8,25-159.3,38.1-240.9,39.2
					c-99.8,1.4-200.6-13.3-294.5-47.6c-75.4-27.5-147.8-68-205.4-124.6c-43.1-42.4-80-96.3-89.1-157.3
					c-11.4-76.3,28.1-159.8,110.4-171.2c90.8-12.5,167.4,70.4,140.3,160.1c-6.1,20.3-18,38.8-34.6,52.1
					c59.9,64.6,151.6,99.2,236,116.2c173.7,35.7,359.1,0.6,509.5-114.7c40.1-30.1,70.2-65.2,105.3-105.3c5-10,15-25.1,25.1-35.1
					C-224,254.3-183.9,129-187.2,0"/>
				<path class="st4" d="M331.5,0.9c-1.5,90-16,179.8-45.1,265c-26.7,78.3-65.6,152.4-115.4,218.4C122.6,548.5,64.2,604.9-1.5,651.1
					c-65.6,46.1-138.2,82.1-214.5,106.6c-77.8,25-159.3,38.1-240.9,39.2c-99.8,1.4-200.6-13.3-294.5-47.6
					c-75.4-27.5-147.8-68-205.4-124.6c-43.1-42.4-80-96.3-89.1-157.3c-11.4-76.3,28.1-159.8,110.4-171.2
					c90.8-12.5,167.4,70.4,140.3,160.1c-6.1,20.3-18,38.8-34.6,52.1c59.9,64.6,151.6,99.2,236,116.2
					c173.7,35.7,359.1,0.6,509.5-114.7c40.1-30.1,70.2-65.2,105.3-105.3c5-10,15-25.1,25.1-35.1C116.3,254.3,156.4,129,153.2,0"/>
			</g>
		</g>
		<rect x="-7.5" y="3187.6" class="st0" width="2548.5" height="1593.8"/>
		<rect x="-5.5" y="4781.4" class="st1" width="2548.5" height="1859.3"/>
		<g class="st10">
			<defs>
				<rect id="SVGID_23_" x="1291.3" y="2181.5" class="st10" width="818.7" height="1006.1"/>
			</defs>
			<clipPath id="SVGID_24_">
				<use xlink:href="#SVGID_23_"  style="overflow:visible;"/>
			</clipPath>
			<g class="st53">
				<path class="st12" d="M919.6,3894.5h222.7l582.5-1586.1h-264.3v-12.2h563v12.2h-269.2l582.5,1586.1h222.7v12.2h-523.8v-12.2
					h286.4L2092,3267.9h-704.9L1157,3894.5h286.4v12.2H919.6V3894.5z M2087.1,3255.7l-347.6-947.2L1392,3255.7H2087.1z"/>
			</g>
		</g>
		<path class="st13" d="M150.6,1594.7c1.4,86.1,15.3,172.1,43.2,253.7c25.6,75,62.8,145.9,110.5,209.2
			c46.3,61.4,102.2,115.4,165.1,159.6c62.8,44.2,132.3,78.6,205.4,102c74.5,23.9,152.5,36.4,230.7,37.5
			c95.6,1.3,192.1-12.7,282-45.6c72.2-26.4,141.5-65.1,196.6-119.3c41.3-40.6,76.6-92.2,85.3-150.6c10.9-73.1-26.9-153-105.7-163.9
			c-86.9-12-160.3,67.4-134.4,153.3c5.9,19.5,17.2,37.1,33.2,49.9c-57.3,61.8-145.2,95-226,111.3c-166.3,34.2-343.9,0.6-487.9-109.8
			c-38.4-28.8-67.2-62.4-100.8-100.8c-4.8-9.6-14.4-24-24-33.6c-67.2-110.4-105.6-230.4-102.5-353.8"/>
		<text transform="matrix(1.0291 0 0 1 44.7881 2107.2983)" class="st14"><tspan x="0" y="0" class="st15 st8 st16">ball </tspan><tspan x="0" y="160.3" class="st15 st8 st16">terminal</tspan></text>
		<text transform="matrix(1.0291 0 0 1 1688.6925 2915.9001)" class="st14"><tspan x="0" y="0" class="st15 st8 st17">slab </tspan><tspan x="0" y="199.2" class="st15 st8 st17">serif</tspan></text>
		<g>
			<defs>
				<rect id="SVGID_25_" x="-6.3" y="2390.7" width="990.9" height="796.9"/>
			</defs>
			<clipPath id="SVGID_26_">
				<use xlink:href="#SVGID_25_"  style="overflow:visible;"/>
			</clipPath>
			<g class="st54">
				<text transform="matrix(1 0 0 1 -194.7331 3569.5159)" class="st12 st19 st20">&amp;</text>
			</g>
		</g>
		<rect x="1471.1" y="1597.8" class="st21" width="1071.9" height="647.5"/>
		<g>
			<defs>
				<rect id="SVGID_27_" x="566.5" y="1595.8" width="569.6" height="428.3"/>
			</defs>
			<clipPath id="SVGID_28_">
				<use xlink:href="#SVGID_27_"  style="overflow:visible;"/>
			</clipPath>
			<g class="st55">
				<text transform="matrix(1 0 0 1 566.525 1975.302)" class="st0 st23 st24">s</text>
			</g>
		</g>
		<g class="st25">
			<defs>
				<rect id="SVGID_29_" x="1570.1" y="1273.4" class="st25" width="798.6" height="320.4"/>
			</defs>
			<clipPath id="SVGID_30_">
				<use xlink:href="#SVGID_29_"  style="overflow:visible;"/>
			</clipPath>
			<g class="st56">
				<text transform="matrix(0 -1 1 0 2561.696 2181.4961)" class="st27 st19 st20">7</text>
			</g>
		</g>
		<g>
			<defs>
				<rect id="SVGID_31_" x="1570.1" y="1595.8" width="972.9" height="587.7"/>
			</defs>
			<clipPath id="SVGID_32_">
				<use xlink:href="#SVGID_31_"  style="overflow:visible;"/>
			</clipPath>
			<g class="st57">
				<text transform="matrix(0 -1 1 0 2561.7009 2181.4985)" class="st12 st19 st20">7</text>
			</g>
		</g>
		<g class="st29">
			<defs>
				<rect id="SVGID_33_" x="-6.3" y="3189.6" class="st29" width="966" height="481.7"/>
			</defs>
			<clipPath id="SVGID_34_">
				<use xlink:href="#SVGID_33_"  style="overflow:visible;"/>
			</clipPath>
			<g class="st58">
				<text transform="matrix(1 0 0 1 -192.7714 3567.4836)" class="st27 st19 st20">&amp;</text>
			</g>
		</g>
		<g>
			<defs>
				<rect id="SVGID_35_" x="-5.5" y="4509.6" width="2541.5" height="271.8"/>
			</defs>
			<clipPath id="SVGID_36_">
				<use xlink:href="#SVGID_35_"  style="overflow:visible;"/>
			</clipPath>
			<g class="st59">
				<text transform="matrix(1 0 0 1 -84.5885 4945.8652)" class="st35 st32 st36">123456789</text>
			</g>
		</g>
		<g>
			<defs>
				<rect id="SVGID_37_" x="-5.5" y="4781.4" width="2547.5" height="278"/>
			</defs>
			<clipPath id="SVGID_38_">
				<use xlink:href="#SVGID_37_"  style="overflow:visible;"/>
			</clipPath>
			<g class="st60">
				<text transform="matrix(1 0 0 1 -84.5885 4945.8633)" class="st38 st32 st36">123456789</text>
			</g>
		</g>
		<g class="st5">
			<defs>
				<rect id="SVGID_39_" x="-3" y="4786.2" class="st5" width="2548.5" height="1593.8"/>
			</defs>
			<clipPath id="SVGID_40_">
				<use xlink:href="#SVGID_39_"  style="overflow:visible;"/>
			</clipPath>
			<path class="st61" d="M-773.3,6379.1c1.4-86.1,15.3-172.1,43.2-253.7c25.6-75,62.8-145.9,110.5-209.2
				c46.3-61.4,102.2-115.4,165.1-159.6c62.8-44.2,132.3-78.6,205.4-102c74.5-23.9,152.5-36.4,230.7-37.5
				c95.6-1.3,192.1,12.7,282,45.6c72.2,26.4,141.5,65.1,196.6,119.3c41.3,40.6,76.6,92.2,85.3,150.6c10.9,73.1-26.9,153-105.7,163.9
				c-86.9,12-160.3-67.4-134.4-153.3c5.9-19.5,17.2-37.1,33.2-49.9c-57.3-61.8-145.2-95-226-111.3
				c-166.3-34.2-343.9-0.6-487.9,109.8c-38.4,28.8-67.2,62.4-100.8,100.8c-4.8,9.6-14.4,24-24,33.6
				c-67.2,110.4-105.6,230.4-102.5,353.8"/>
			<path class="st61" d="M-1099.2,6379.1c1.4-86.1,15.3-172.1,43.2-253.7c25.6-75,62.8-145.9,110.5-209.2
				c46.3-61.4,102.2-115.4,165.1-159.6c62.8-44.2,132.3-78.6,205.4-102c74.5-23.9,152.5-36.4,230.7-37.5
				c95.6-1.3,192.1,12.7,282,45.6c72.2,26.4,141.5,65.1,196.6,119.3c41.3,40.6,76.6,92.2,85.3,150.6c10.9,73.1-26.9,153-105.7,163.9
				c-86.9,12-160.3-67.4-134.4-153.3c5.9-19.5,17.2-37.1,33.2-49.9c-57.3-61.8-145.2-95-226-111.3
				c-166.3-34.2-343.9-0.6-487.9,109.8c-38.4,28.8-67.2,62.4-100.8,100.8c-4.8,9.6-14.4,24-24,33.6
				c-67.2,110.4-105.6,230.4-102.5,353.8"/>
			<path class="st61" d="M-136.6,6379.1c1.4-86.1,15.3-172.1,43.2-253.7c25.6-75,62.8-145.9,110.5-209.2
				c46.3-61.4,102.2-115.4,165.1-159.6c62.8-44.2,132.3-78.6,205.4-102c74.5-23.9,152.5-36.4,230.7-37.5
				c95.6-1.3,192.1,12.7,282,45.6c72.2,26.4,141.5,65.1,196.6,119.3c41.3,40.6,76.6,92.2,85.3,150.6c10.9,73.1-26.9,153-105.7,163.9
				c-86.9,12-160.3-67.4-134.4-153.3c5.9-19.5,17.2-37.1,33.2-49.9c-57.3-61.8-145.2-95-226-111.3
				c-166.3-34.2-343.9-0.6-487.9,109.8c-38.4,28.8-67.2,62.4-100.8,100.8c-4.8,9.6-14.4,24-24,33.6C69.4,6136.5,31,6256.5,34.1,6380
				"/>
			<path class="st61" d="M-462.5,6379.1c1.4-86.1,15.3-172.1,43.2-253.7c25.6-75,62.8-145.9,110.5-209.2
				c46.3-61.4,102.2-115.4,165.1-159.6c62.8-44.2,132.3-78.6,205.4-102c74.5-23.9,152.5-36.4,230.7-37.5
				c95.6-1.3,192.1,12.7,282,45.6c72.2,26.4,141.5,65.1,196.6,119.3c41.3,40.6,76.6,92.2,85.3,150.6c10.9,73.1-26.9,153-105.7,163.9
				c-86.9,12-160.3-67.4-134.4-153.3c5.9-19.5,17.2-37.1,33.2-49.9c-57.3-61.8-145.2-95-226-111.3
				c-166.3-34.2-343.9-0.6-487.9,109.8c-38.4,28.8-67.2,62.4-100.8,100.8c-4.8,9.6-14.4,24-24,33.6
				c-67.2,110.4-105.6,230.4-102.5,353.8"/>
			<path class="st61" d="M476,6379.1c1.4-86.1,15.3-172.1,43.2-253.7c25.6-75,62.8-145.9,110.5-209.2
				c46.3-61.4,102.2-115.4,165.1-159.6c62.8-44.2,132.3-78.6,205.4-102c74.5-23.9,152.5-36.4,230.7-37.5
				c95.6-1.3,192.1,12.7,282,45.6c72.2,26.4,141.5,65.1,196.6,119.3c41.3,40.6,76.6,92.2,85.3,150.6c10.9,73.1-26.9,153-105.7,163.9
				c-86.9,12-160.3-67.4-134.4-153.3c5.9-19.5,17.2-37.1,33.2-49.9c-57.3-61.8-145.2-95-226-111.3
				c-166.3-34.2-343.9-0.6-487.9,109.8c-38.4,28.8-67.2,62.4-100.8,100.8c-4.8,9.6-14.4,24-24,33.6
				C682,6136.5,643.6,6256.5,646.7,6380"/>
			<path class="st61" d="M150.1,6379.1c1.4-86.1,15.3-172.1,43.2-253.7c25.6-75,62.8-145.9,110.5-209.2
				c46.3-61.4,102.2-115.4,165.1-159.6c62.8-44.2,132.3-78.6,205.4-102c74.5-23.9,152.5-36.4,230.7-37.5
				c95.6-1.3,192.1,12.7,282,45.6c72.2,26.4,141.5,65.1,196.6,119.3c41.3,40.6,76.6,92.2,85.3,150.6c10.9,73.1-26.9,153-105.7,163.9
				c-86.9,12-160.3-67.4-134.4-153.3c5.9-19.5,17.2-37.1,33.2-49.9c-57.3-61.8-145.2-95-226-111.3
				c-166.3-34.2-343.9-0.6-487.9,109.8c-38.4,28.8-67.2,62.4-100.8,100.8c-4.8,9.6-14.4,24-24,33.6
				c-67.2,110.4-105.6,230.4-102.5,353.8"/>
			<path class="st61" d="M1112.7,6379.1c1.4-86.1,15.3-172.1,43.2-253.7c25.6-75,62.8-145.9,110.5-209.2
				c46.3-61.4,102.2-115.4,165.1-159.6c62.8-44.2,132.3-78.6,205.4-102c74.5-23.9,152.5-36.4,230.7-37.5
				c95.6-1.3,192.1,12.7,282,45.6c72.2,26.4,141.5,65.1,196.6,119.3c41.3,40.6,76.6,92.2,85.3,150.6c10.9,73.1-26.9,153-105.7,163.9
				c-86.9,12-160.3-67.4-134.4-153.3c5.9-19.5,17.2-37.1,33.2-49.9c-57.3-61.8-145.2-95-226-111.3
				c-166.3-34.2-343.9-0.6-487.9,109.8c-38.4,28.8-67.2,62.4-100.8,100.8c-4.8,9.6-14.4,24-24,33.6
				c-67.2,110.4-105.6,230.4-102.5,353.8"/>
			<path class="st61" d="M786.8,6379.1c1.4-86.1,15.3-172.1,43.2-253.7c25.6-75,62.8-145.9,110.5-209.2
				c46.3-61.4,102.2-115.4,165.1-159.6c62.8-44.2,132.3-78.6,205.4-102c74.5-23.9,152.5-36.4,230.7-37.5
				c95.6-1.3,192.1,12.7,282,45.6c72.2,26.4,141.5,65.1,196.6,119.3c41.3,40.6,76.6,92.2,85.3,150.6c10.9,73.1-26.9,153-105.7,163.9
				c-86.9,12-160.3-67.4-134.4-153.3c5.9-19.5,17.2-37.1,33.2-49.9c-57.3-61.8-145.2-95-226-111.3
				c-166.3-34.2-343.9-0.6-487.9,109.8c-38.4,28.8-67.2,62.4-100.8,100.8c-4.8,9.6-14.4,24-24,33.6
				c-67.2,110.4-105.6,230.4-102.5,353.8"/>
			<path class="st61" d="M1725.2,6379.1c1.4-86.1,15.3-172.1,43.2-253.7c25.6-75,62.8-145.9,110.5-209.2
				c46.3-61.4,102.2-115.4,165.1-159.6c62.8-44.2,132.3-78.6,205.4-102c74.5-23.9,152.5-36.4,230.7-37.5
				c95.6-1.3,192.1,12.7,282,45.6c72.2,26.4,141.5,65.1,196.6,119.3c41.3,40.6,76.6,92.2,85.3,150.6c10.9,73.1-26.9,153-105.7,163.9
				c-86.9,12-160.3-67.4-134.4-153.3c5.9-19.5,17.2-37.1,33.2-49.9c-57.3-61.8-145.2-95-226-111.3
				c-166.3-34.2-343.9-0.6-487.9,109.8c-38.4,28.8-67.2,62.4-100.8,100.8c-4.8,9.6-14.4,24-24,33.6
				c-67.2,110.4-105.6,230.4-102.5,353.8"/>
			<path class="st61" d="M1399.4,6379.1c1.4-86.1,15.3-172.1,43.2-253.7c25.6-75,62.8-145.9,110.5-209.2
				c46.3-61.4,102.2-115.4,165.1-159.6c62.8-44.2,132.3-78.6,205.4-102c74.5-23.9,152.5-36.4,230.7-37.5
				c95.6-1.3,192.1,12.7,282,45.6c72.2,26.4,141.5,65.1,196.6,119.3c41.3,40.6,76.6,92.2,85.3,150.6c10.9,73.1-26.9,153-105.7,163.9
				c-86.9,12-160.3-67.4-134.4-153.3c5.9-19.5,17.2-37.1,33.2-49.9c-57.3-61.8-145.2-95-226-111.3
				c-166.3-34.2-343.9-0.6-487.9,109.8c-38.4,28.8-67.2,62.4-100.8,100.8c-4.8,9.6-14.4,24-24,33.6
				c-67.2,110.4-105.6,230.4-102.5,353.8"/>
			<path class="st61" d="M2361.9,6379.1c1.4-86.1,15.3-172.1,43.2-253.7c25.6-75,62.8-145.9,110.5-209.2
				c46.3-61.4,102.2-115.4,165.1-159.6c62.8-44.2,132.3-78.6,205.4-102c74.5-23.9,152.5-36.4,230.7-37.5
				c95.6-1.3,192.1,12.7,282,45.6c72.2,26.4,141.5,65.1,196.6,119.3c41.3,40.6,76.6,92.2,85.3,150.6c10.9,73.1-26.9,153-105.7,163.9
				c-86.9,12-160.3-67.4-134.4-153.3c5.9-19.5,17.2-37.1,33.2-49.9c-57.3-61.8-145.2-95-226-111.3
				c-166.3-34.2-343.9-0.6-487.9,109.8c-38.4,28.8-67.2,62.4-100.8,100.8c-4.8,9.6-14.4,24-24,33.6
				c-67.2,110.4-105.6,230.4-102.5,353.8"/>
			<path class="st61" d="M2036.1,6379.1c1.4-86.1,15.3-172.1,43.2-253.7c25.6-75,62.8-145.9,110.5-209.2
				c46.3-61.4,102.2-115.4,165.1-159.6c62.8-44.2,132.3-78.6,205.4-102c74.5-23.9,152.5-36.4,230.7-37.5
				c95.6-1.3,192.1,12.7,282,45.6c72.2,26.4,141.5,65.1,196.6,119.3c41.3,40.6,76.6,92.2,85.3,150.6c10.9,73.1-26.9,153-105.7,163.9
				c-86.9,12-160.3-67.4-134.4-153.3c5.9-19.5,17.2-37.1,33.2-49.9c-57.3-61.8-145.2-95-226-111.3
				c-166.3-34.2-343.9-0.6-487.9,109.8c-38.4,28.8-67.2,62.4-100.8,100.8c-4.8,9.6-14.4,24-24,33.6
				c-67.2,110.4-105.6,230.4-102.5,353.8"/>
		</g>
	</g>
</g>
<g id="Layer_2">
</g>
</svg>
