<?xml version="1.0" encoding="utf-8"?>
<!-- Generator: Adobe Illustrator 19.1.0, SVG Export Plug-In . SVG Version: 6.00 Build 0)  -->
<svg version="1.1" id="Layer_1" xmlns="http://www.w3.org/2000/svg" xmlns:xlink="http://www.w3.org/1999/xlink" x="0px" y="0px"
	 viewBox="0 -5.5 1280 811" style="enable-background:new 0 -5.5 1280 811;" xml:space="preserve">
<style type="text/css">
	.st0{fill:none;}
	.st1{fill:#FFFFFF;}
	.st2{font-family:'Archer-SemiboldItalic';}
	.st3{font-size:36px;}
	.st4{fill:#B3AAAF;}
	.st5{font-family:'Archer-LightItalic';}
	.st6{letter-spacing:9;}
	.st7{letter-spacing:10;}
	.st8{letter-spacing:6;}
	.st9{font-family:'Archer-Medium';}
</style>
<rect x="126" y="163.8" class="st0" width="1028.1" height="472.3"/>
<text transform="matrix(1 0 0 1 404.0656 193.8459)" class="st1 st2 st3">Sweet but not saccharine, earnest but not grave, </text>
<text transform="matrix(1 0 0 1 434.3656 241.8459)" class="st1 st2 st3">Archer is designed to hit just the right notes of </text>
<text transform="matrix(1 0 0 1 558.4656 289.8459)" class="st1 st2 st3">forthrightness, credibility, and charm. </text>
<text transform="matrix(1 0 0 1 122.3656 385.8459)" class="st4 st5 st3">Designed</text>
<text transform="matrix(1 0 0 1 261.7656 385.8459)" class="st4 st5 st3 st6"> </text>
<text transform="matrix(1 0 0 1 279.3656 385.8459)" class="st4 st5 st3">in</text>
<text transform="matrix(1 0 0 1 307.9656 385.8459)" class="st4 st5 st3 st6"> </text>
<text transform="matrix(1 0 0 1 325.5656 385.8459)" class="st4 st5 st3">2001</text>
<text transform="matrix(1 0 0 1 393.5656 385.8459)" class="st4 st5 st3 st6"> </text>
<text transform="matrix(1 0 0 1 411.1656 385.8459)" class="st4 st5 st3">by</text>
<text transform="matrix(1 0 0 1 446.4656 385.8459)" class="st4 st5 st3 st6"> </text>
<text transform="matrix(1 0 0 1 464.0656 385.8459)" class="st4 st5 st3">Hoefler&amp;Co.</text>
<text transform="matrix(1 0 0 1 641.6656 385.8459)" class="st4 st5 st3 st6"> </text>
<text transform="matrix(1 0 0 1 659.2656 385.8459)" class="st4 st5 st3">It</text>
<text transform="matrix(1 0 0 1 682.2656 385.8459)" class="st4 st5 st3 st6"> </text>
<text transform="matrix(1 0 0 1 699.8656 385.8459)" class="st4 st5 st3">combines</text>
<text transform="matrix(1 0 0 1 839.6656 385.8459)" class="st4 st5 st3 st6"> </text>
<text transform="matrix(1 0 0 1 857.1656 385.8459)" class="st4 st5 st3">the</text>
<text transform="matrix(1 0 0 1 903.3656 385.8459)" class="st4 st5 st3 st6"> </text>
<text transform="matrix(1 0 0 1 920.9656 385.8459)" class="st4 st5 st3">ordinariness</text>
<text transform="matrix(1 0 0 1 1104.5657 385.8459)" class="st4 st5 st3 st6"> </text>
<text transform="matrix(1 0 0 1 1122.1655 385.8459)" class="st4 st5 st3">of </text>
<text transform="matrix(1 0 0 1 122.3656 433.8459)" class="st4 st5 st3">antique</text>
<text transform="matrix(1 0 0 1 235.5656 433.8459)" class="st4 st5 st3 st7"> </text>
<text transform="matrix(1 0 0 1 254.0656 433.8459)" class="st4 st5 st3">slab</text>
<text transform="matrix(1 0 0 1 315.5656 433.8459)" class="st4 st5 st3 st7"> </text>
<text transform="matrix(1 0 0 1 333.9656 433.8459)" class="st4 st5 st3">serifs</text>
<text transform="matrix(1 0 0 1 411.5656 433.8459)" class="st4 st5 st3 st7"> </text>
<text transform="matrix(1 0 0 1 430.0656 433.8459)" class="st4 st5 st3">with</text>
<text transform="matrix(1 0 0 1 492.6656 433.8459)" class="st4 st5 st3 st7"> </text>
<text transform="matrix(1 0 0 1 511.0656 433.8459)" class="st4 st5 st3">the</text>
<text transform="matrix(1 0 0 1 557.2656 433.8459)" class="st4 st5 st3 st7"> </text>
<text transform="matrix(1 0 0 1 575.7656 433.8459)" class="st4 st5 st3">modern</text>
<text transform="matrix(1 0 0 1 688.4656 433.8459)" class="st4 st5 st3 st7"> </text>
<text transform="matrix(1 0 0 1 706.9656 433.8459)" class="st4 st5 st3">practicality</text>
<text transform="matrix(1 0 0 1 877.1656 433.8459)" class="st4 st5 st3 st7"> </text>
<text transform="matrix(1 0 0 1 895.5656 433.8459)" class="st4 st5 st3">of</text>
<text transform="matrix(1 0 0 1 923.8656 433.8459)" class="st4 st5 st3 st7"> </text>
<text transform="matrix(1 0 0 1 942.3656 433.8459)" class="st4 st5 st3">geometrics.</text>
<text transform="matrix(1 0 0 1 1108.9656 433.8459)" class="st4 st5 st3 st7"> </text>
<text transform="matrix(1 0 0 1 1127.3656 433.8459)" class="st4 st5 st3">It </text>
<text transform="matrix(1 0 0 1 122.3656 481.8459)" class="st4 st5 st3">restored</text>
<text transform="matrix(1 0 0 1 242.5656 481.8459)" class="st4 st5 st3 st8"> </text>
<text transform="matrix(1 0 0 1 257.3656 481.8459)" class="st4 st5 st3">the</text>
<text transform="matrix(1 0 0 1 303.4656 481.8459)" class="st4 st5 st3 st8"> </text>
<text transform="matrix(1 0 0 1 318.2656 481.8459)" class="st4 st5 st3">vanished</text>
<text transform="matrix(1 0 0 1 451.6656 481.8459)" class="st4 st5 st3 st8"> </text>
<text transform="matrix(1 0 0 1 466.3656 481.8459)" class="st4 st5 st3">‘ball</text>
<text transform="matrix(1 0 0 1 528.9656 481.8459)" class="st4 st5 st3 st8"> </text>
<text transform="matrix(1 0 0 1 543.6656 481.8459)" class="st4 st5 st3">terminals’</text>
<text transform="matrix(1 0 0 1 689.0656 481.8459)" class="st4 st5 st3 st8"> </text>
<text transform="matrix(1 0 0 1 703.7656 481.8459)" class="st4 st5 st3">to</text>
<text transform="matrix(1 0 0 1 732.6656 481.8459)" class="st4 st5 st3 st8"> </text>
<text transform="matrix(1 0 0 1 747.4656 481.8459)" class="st4 st5 st3">yield</text>
<text transform="matrix(1 0 0 1 819.6656 481.8459)" class="st4 st5 st3 st8"> </text>
<text transform="matrix(1 0 0 1 834.3656 481.8459)" class="st4 st5 st3">a</text>
<text transform="matrix(1 0 0 1 853.8656 481.8459)" class="st4 st5 st3 st8"> </text>
<text transform="matrix(1 0 0 1 868.5656 481.8459)" class="st4 st5 st3">font</text>
<text transform="matrix(1 0 0 1 926.7656 481.8459)" class="st4 st5 st3 st8"> </text>
<text transform="matrix(1 0 0 1 941.4656 481.8459)" class="st4 st5 st3">that’s</text>
<text transform="matrix(1 0 0 1 1022.2656 481.8459)" class="st4 st5 st3 st8"> </text>
<text transform="matrix(1 0 0 1 1036.9656 481.8459)" class="st4 st5 st3">friendly </text>
<text transform="matrix(1 0 0 1 122.3656 529.8459)" class="st4 st5 st3">without</text>
<text transform="matrix(1 0 0 1 232.5656 529.8459)" class="st4 st5 st3"> </text>
<text transform="matrix(1 0 0 1 241.7656 529.8459)" class="st4 st5 st3">being</text>
<text transform="matrix(1 0 0 1 323.9656 529.8459)" class="st4 st5 st3"> </text>
<text transform="matrix(1 0 0 1 333.0656 529.8459)" class="st4 st5 st3">silly.</text>
<text transform="matrix(1 0 0 1 398.2656 529.8459)" class="st4 st5 st3"> </text>
<text transform="matrix(1 0 0 1 407.3656 529.8459)" class="st4 st5 st3">The</text>
<text transform="matrix(1 0 0 1 464.4656 529.8459)" class="st4 st5 st3"> </text>
<text transform="matrix(1 0 0 1 473.5656 529.8459)" class="st4 st5 st3">result</text>
<text transform="matrix(1 0 0 1 555.5656 529.8459)" class="st4 st5 st3"> </text>
<text transform="matrix(1 0 0 1 564.6656 529.8459)" class="st4 st5 st3">is</text>
<text transform="matrix(1 0 0 1 588.8656 529.8459)" class="st4 st5 st3"> </text>
<text transform="matrix(1 0 0 1 597.9656 529.8459)" class="st4 st5 st3">a</text>
<text transform="matrix(1 0 0 1 617.4656 529.8459)" class="st4 st5 st3"> </text>
<text transform="matrix(1 0 0 1 626.5656 529.8459)" class="st4 st5 st3">typeface</text>
<text transform="matrix(1 0 0 1 752.9656 529.8459)" class="st4 st5 st3"> </text>
<text transform="matrix(1 0 0 1 762.0656 529.8459)" class="st4 st5 st3">that’s</text>
<text transform="matrix(1 0 0 1 842.7656 529.8459)" class="st4 st5 st3"> </text>
<text transform="matrix(1 0 0 1 851.8656 529.8459)" class="st4 st5 st3">well-mannered,</text>
<text transform="matrix(1 0 0 1 1074.0657 529.8459)" class="st4 st5 st3"> </text>
<text transform="matrix(1 0 0 1 1083.1655 529.8459)" class="st4 st5 st3">easy </text>
<text transform="matrix(1 0 0 1 666.7656 577.8459)" class="st4 st5 st3">to work with, and inviting to read.</text>
<text transform="matrix(1 0 0 1 949.4656 625.8459)" class="st4 st9 st3">-Hoefler&amp;Co. </text>
</svg>
